<svg id="hide_pass" data-name="hide pass" xmlns="http://www.w3.org/2000/svg" width="19.729" height="15.782" viewBox="0 0 19.729 15.782">
  <g id="Group_77" data-name="Group 77">
    <g id="Group_76" data-name="Group 76" transform="translate(0 0)">
      <path id="Path_31" data-name="Path 31" d="M17.54,49.236a.725.725,0,0,0-1.027,0l-2.577,2.577A9.872,9.872,0,0,0,4.089,52.84a16.456,16.456,0,0,0-3.95,3.648.731.731,0,0,0,.02.886A17.8,17.8,0,0,0,4.451,61.3L2.185,63.565a.725.725,0,1,0,1.023,1.027L17.54,50.263A.729.729,0,0,0,17.54,49.236ZM8.071,57.679a1.885,1.885,0,0,1-.157-.765,1.951,1.951,0,0,1,2.718-1.8ZM11.7,54.051a3.4,3.4,0,0,0-4.694,4.694L5.514,60.239A15.248,15.248,0,0,1,1.665,56.9a15.507,15.507,0,0,1,3.217-2.85,8.448,8.448,0,0,1,7.951-1.131Z" transform="translate(0 -49.023)" fill="rgba(255,205,81,0.64)"/>
    </g>
  </g>
  <g id="Group_79" data-name="Group 79" transform="translate(7.274 4.207)">
    <g id="Group_78" data-name="Group 78" transform="translate(0 0)">
      <path id="Path_32" data-name="Path 32" d="M192.959,156.737a19.411,19.411,0,0,0-3.072-3.072.727.727,0,1,0-.9,1.143,17.311,17.311,0,0,1,2.464,2.4,15.885,15.885,0,0,1-2.657,2.468,8.955,8.955,0,0,1-7.259,1.888.724.724,0,0,0-.3,1.417,9.023,9.023,0,0,0,1.884.2,9.579,9.579,0,0,0,2.863-.447,12.782,12.782,0,0,0,3.7-1.912,16.632,16.632,0,0,0,3.293-3.193A.731.731,0,0,0,192.959,156.737Z" transform="translate(-180.663 -153.512)" fill="rgba(255,205,81,0.64)"/>
    </g>
  </g>
</svg>
