<svg xmlns="http://www.w3.org/2000/svg" width="60.977" height="9.887" viewBox="0 0 60.977 9.887">
  <g id="star" transform="translate(-92 -144.888)">
    <path id="star-2" data-name="star" d="M10.29,4.228a.547.547,0,0,0-.472-.377L6.84,3.58,5.663.824a.548.548,0,0,0-1.009,0L3.477,3.58.5,3.851a.549.549,0,0,0-.311.96L2.438,6.784,1.775,9.708a.547.547,0,0,0,.815.592L5.159,8.765,7.726,10.3a.548.548,0,0,0,.816-.592L7.879,6.784,10.13,4.811a.549.549,0,0,0,.161-.583Zm0,0" transform="translate(104.665 144.397)" fill="#fab300"/>
    <path id="star-3" data-name="star" d="M10.29,4.228a.547.547,0,0,0-.472-.377L6.84,3.58,5.663.824a.548.548,0,0,0-1.009,0L3.477,3.58.5,3.851a.549.549,0,0,0-.311.96L2.438,6.784,1.775,9.708a.547.547,0,0,0,.815.592L5.159,8.765,7.726,10.3a.548.548,0,0,0,.816-.592L7.879,6.784,10.13,4.811a.549.549,0,0,0,.161-.583Zm0,0" transform="translate(92 144.397)" fill="#fab300"/>
    <path id="star-4" data-name="star" d="M10.29,4.228a.547.547,0,0,0-.472-.377L6.84,3.58,5.663.824a.548.548,0,0,0-1.009,0L3.477,3.58.5,3.851a.549.549,0,0,0-.311.96L2.438,6.784,1.775,9.708a.547.547,0,0,0,.815.592L5.159,8.765,7.726,10.3a.548.548,0,0,0,.816-.592L7.879,6.784,10.13,4.811a.549.549,0,0,0,.161-.583Zm0,0" transform="translate(117.33 144.397)" fill="#fab300"/>
    <path id="star-5" data-name="star" d="M10.29,4.228a.547.547,0,0,0-.472-.377L6.84,3.58,5.663.824a.548.548,0,0,0-1.009,0L3.477,3.58.5,3.851a.549.549,0,0,0-.311.96L2.438,6.784,1.775,9.708a.547.547,0,0,0,.815.592L5.159,8.765,7.726,10.3a.548.548,0,0,0,.816-.592L7.879,6.784,10.13,4.811a.549.549,0,0,0,.161-.583Zm0,0" transform="translate(129.995 144.397)" fill="#fab300"/>
    <path id="star-6" data-name="star" d="M10.29,4.228a.547.547,0,0,0-.472-.377L6.84,3.58,5.663.824a.548.548,0,0,0-1.009,0L3.477,3.58.5,3.851a.549.549,0,0,0-.311.96L2.438,6.784,1.775,9.708a.547.547,0,0,0,.815.592L5.159,8.765,7.726,10.3a.548.548,0,0,0,.816-.592L7.879,6.784,10.13,4.811a.549.549,0,0,0,.161-.583Zm0,0" transform="translate(142.66 144.397)" fill="#fab300"/>
    <path id="star-7" data-name="star" d="M10.29,4.228a.547.547,0,0,0-.472-.377L6.84,3.58,5.663.824a.548.548,0,0,0-1.009,0L3.477,3.58.5,3.851a.549.549,0,0,0-.311.96L2.438,6.784,1.775,9.708a.547.547,0,0,0,.815.592L5.159,8.765,7.726,10.3a.548.548,0,0,0,.816-.592L7.879,6.784,10.13,4.811a.549.549,0,0,0,.161-.583Zm0,0" transform="translate(142.66 144.397)" fill="#fab300"/>
  </g>
</svg>
