<svg xmlns="http://www.w3.org/2000/svg" width="20.437" height="13.39" viewBox="0 0 20.437 13.39">
  <g id="sudi" transform="translate(0 -88.276)">
    <path id="Path_33" data-name="Path 33" d="M18.906,101.666H1.531A1.531,1.531,0,0,1,0,100.135V89.807a1.531,1.531,0,0,1,1.531-1.531H18.906a1.531,1.531,0,0,1,1.531,1.531v10.329A1.531,1.531,0,0,1,18.906,101.666Z" fill="#73af00"/>
    <g id="Group_17276" data-name="Group 17276" transform="translate(4.04 91.095)">
      <path id="Path_34" data-name="Path 34" d="M102.348,167.514c.035.223.169.292.286.283a.288.288,0,0,0,.259-.27v-.764a.069.069,0,1,1,.139,0v.767a.278.278,0,0,0,.381.258l.069-.028c.006.641-.033,1.2-.033,1.215a.139.139,0,0,0,.129.148h.01a.139.139,0,0,0,.138-.129c0-.045.046-.662.033-1.346l.042-.017a.139.139,0,0,1,.114,0,.4.4,0,0,0,.458-.074l.025-.025a.415.415,0,0,0,.1-.426l-.118-.355a.139.139,0,0,0,.1-.257l-.278-.139a.139.139,0,0,0-.194.168l.223.671a.138.138,0,0,1-.034.142l-.025.025a.119.119,0,0,1-.137.022.415.415,0,0,0-.289-.029,4.791,4.791,0,0,0-.17-1.2.139.139,0,0,0-.264.088,4.775,4.775,0,0,1,.159,1.212l-.166.067v-.767a.347.347,0,0,0-.695,0v.672l-.142-.7a.139.139,0,1,0-.272.055Z" transform="translate(-102.16 -165.783)" fill="#f5f5f5"/>
      <path id="Path_35" data-name="Path 35" d="M109.3,163.011a.139.139,0,0,0,.139-.139v-.139a.139.139,0,0,0-.278,0v.139A.139.139,0,0,0,109.3,163.011Z" transform="translate(-108.843 -162.446)" fill="#f5f5f5"/>
      <path id="Path_36" data-name="Path 36" d="M144.1,162.872h.139a.139.139,0,1,0,0-.278H144.1a.139.139,0,1,0,0,.278Z" transform="translate(-142.251 -162.446)" fill="#f5f5f5"/>
      <path id="Path_37" data-name="Path 37" d="M106.441,214.809l-.695.417a.139.139,0,1,0,.143.238l.694-.417a.139.139,0,1,0-.143-.238Z" transform="translate(-105.501 -212.558)" fill="#f5f5f5"/>
      <path id="Path_38" data-name="Path 38" d="M118.262,168.282l0,0a.317.317,0,0,0,.064.131.273.273,0,0,0,.237.092.383.383,0,0,0,.289-.152l.029.017a.263.263,0,0,0,.245-.008.527.527,0,0,0,.249-.489.142.142,0,0,0-.145-.132.139.139,0,0,0-.133.144s0,.167-.1.228a.338.338,0,0,1-.043-.117.139.139,0,0,0-.276.023c0,.02,0,.2-.142.213a.339.339,0,0,1,0-.182.139.139,0,0,0-.213-.147l-.078.053c-.037-.805-.122-1.744-.123-1.756a.139.139,0,1,0-.277.025c0,.013.1,1.1.13,1.928l-.021.021a.358.358,0,0,0-.3-.239.507.507,0,0,0-.489.31.329.329,0,0,0,.106.414.463.463,0,0,0,.414.019,1.161,1.161,0,0,1-.226.428.583.583,0,0,1-.444.226.365.365,0,0,1-.27-.115.793.793,0,0,1-.147-.5.139.139,0,0,0-.131-.146.136.136,0,0,0-.146.131,1.065,1.065,0,0,0,.218.7.637.637,0,0,0,.465.206h.028a.846.846,0,0,0,.637-.323,1.437,1.437,0,0,0,.318-.712,1.574,1.574,0,0,1-.666,1.247.693.693,0,0,1-.7.051.6.6,0,0,1-.306-.587.139.139,0,1,0-.276-.034.872.872,0,0,0,.458.871.944.944,0,0,0,.421.1,1.028,1.028,0,0,0,.545-.164,1.847,1.847,0,0,0,.8-1.484C118.266,168.483,118.264,168.385,118.262,168.282Zm-.838.143c-.025-.016-.005-.069,0-.079a.236.236,0,0,1,.194-.137h.011c.018,0,.065.006.085.111,0,.011,0,.023.005.034C117.564,168.446,117.46,168.449,117.424,168.425Z" transform="translate(-115.449 -165.786)" fill="#f5f5f5"/>
      <path id="Path_39" data-name="Path 39" d="M101.75,243.208a.139.139,0,0,0-.19.049.282.282,0,0,1-.023.033l0-.011a.934.934,0,0,1,0-.471.139.139,0,0,0-.268-.072,1.2,1.2,0,0,0,0,.64c.064.17.162.213.233.219h.019a.365.365,0,0,0,.277-.2A.139.139,0,0,0,101.75,243.208Z" transform="translate(-101.225 -239.29)" fill="#f5f5f5"/>
      <path id="Path_40" data-name="Path 40" d="M175.268,163.844a.138.138,0,0,0,.086-.03l.7-.55a.135.135,0,0,0,.023-.027.348.348,0,1,0-.4-.031l-.5.389a.139.139,0,0,0,.086.248Zm.631-.972a.069.069,0,1,1-.069.069A.07.07,0,0,1,175.9,162.872Z" transform="translate(-172.179 -162.446)" fill="#f5f5f5"/>
      <path id="Path_41" data-name="Path 41" d="M185.354,190.438a.139.139,0,0,0-.176.088.424.424,0,0,0,.054.41.28.28,0,0,0,.208.079.61.61,0,0,0,.192-.035.139.139,0,1,0-.088-.263.482.482,0,0,1-.113.024.266.266,0,0,1,.011-.127A.139.139,0,0,0,185.354,190.438Z" transform="translate(-181.799 -189.172)" fill="#f5f5f5"/>
      <path id="Path_42" data-name="Path 42" d="M227.716,163a.139.139,0,0,0,.172-.094l.081-.278a.139.139,0,0,0-.267-.078l-.081.278A.139.139,0,0,0,227.716,163Z" transform="translate(-222.571 -162.306)" fill="#f5f5f5"/>
      <path id="Path_43" data-name="Path 43" d="M205.951,159.573a.139.139,0,1,0,.14-.24c-.028-.016-.024-.062-.023-.071a.109.109,0,0,1,.064-.093.139.139,0,0,0-.083-.265.381.381,0,0,0-.257.327A.342.342,0,0,0,205.951,159.573Z" transform="translate(-201.616 -158.897)" fill="#f5f5f5"/>
      <path id="Path_44" data-name="Path 44" d="M178.893,232.189a.139.139,0,0,0-.026.275.261.261,0,0,1,.026.141.139.139,0,0,0,.278,0C179.171,232.194,178.9,232.189,178.893,232.189Z" transform="translate(-175.659 -229.263)" fill="#f5f5f5"/>
      <path id="Path_45" data-name="Path 45" d="M234.7,208.227a.321.321,0,0,0,.052,0,.475.475,0,0,0,.329-.164.139.139,0,0,0-.2-.2c-.083.083-.128.085-.139.082-.027,0-.051-.038-.056-.048a.139.139,0,0,0-.248.126A.376.376,0,0,0,234.7,208.227Z" transform="translate(-229.114 -205.876)" fill="#f5f5f5"/>
      <path id="Path_46" data-name="Path 46" d="M293.858,190.915l0-.006a.139.139,0,0,0-.263.089.311.311,0,0,0,.226.216l.031,0a.34.34,0,0,0,.269-.185.139.139,0,0,0-.231-.154A.418.418,0,0,1,293.858,190.915Z" transform="translate(-285.907 -189.541)" fill="#f5f5f5"/>
      <path id="Path_47" data-name="Path 47" d="M203.38,169.677c0-.592-.026-1.148-.062-1.635a7.033,7.033,0,0,1,.488.989.139.139,0,0,0,.13.09.141.141,0,0,0,.049-.009.139.139,0,0,0,.081-.179,9.2,9.2,0,0,0-.8-1.522c-.076-.748-.161-1.223-.162-1.232a.139.139,0,0,0-.273.05c0,.006.045.251.1.662-.107-.158-.206-.3-.289-.419l.007,0a.139.139,0,1,0,.088-.263l-.417-.139a.138.138,0,0,0-.157.051.14.14,0,0,0-.02.043.3.3,0,0,0-.29-.07.236.236,0,0,0-.133.247,1.255,1.255,0,0,0,.1.393c.082.232.133.4.046.483a.152.152,0,0,1-.142.05c-.086-.022-.17-.136-.227-.305a.129.129,0,0,0-.011-.019,2.361,2.361,0,0,0-.042-.769.139.139,0,1,0-.272.055,1.322,1.322,0,0,1-.073.99.249.249,0,0,1-.208.094.08.08,0,0,1-.066-.031,1.339,1.339,0,0,1-.074-.783.139.139,0,0,0-.138-.158c-.239,0-.33.272-.41.512-.035.105-.1.3-.146.322-.084,0-.138-.247-.139-.417a.139.139,0,0,0-.139-.139h0a.139.139,0,0,0-.139.139c0,.32.109.695.417.695.229,0,.322-.25.4-.482a.871.871,0,0,0,.158.494.356.356,0,0,0,.276.127.528.528,0,0,0,.423-.2.642.642,0,0,0,.052-.077.518.518,0,0,0,.291.218.4.4,0,0,0,.1.012.441.441,0,0,0,.3-.129.411.411,0,0,0,.046-.056.375.375,0,0,0,.1.015.562.562,0,0,0,.288-.088.139.139,0,0,0-.149-.234.3.3,0,0,1-.157.041,1.434,1.434,0,0,0-.105-.456,1.935,1.935,0,0,1-.072-.232l.033.029a.139.139,0,0,0,.2,0,.133.133,0,0,0,.02-.03c.144.2.44.615.745,1.1.058.591.109,1.344.109,2.17a.139.139,0,0,0,.278,0Z" transform="translate(-195.702 -165.779)" fill="#f5f5f5"/>
      <path id="Path_48" data-name="Path 48" d="M293.725,166.631a.139.139,0,1,0,.278,0,1.416,1.416,0,0,0-.154-.479.139.139,0,0,0-.248.124A1.235,1.235,0,0,1,293.725,166.631Z" transform="translate(-285.908 -165.789)" fill="#f5f5f5"/>
      <path id="Path_49" data-name="Path 49" d="M263.027,249.882a.139.139,0,0,0-.186.061.4.4,0,0,1-.058.082.776.776,0,0,1,.037-.257.139.139,0,0,0-.231-.139l-.278.278a.139.139,0,1,0,.2.2l.007-.007a.287.287,0,0,0,.074.146.254.254,0,0,0,.18.08.245.245,0,0,0,.038,0,.452.452,0,0,0,.282-.251A.139.139,0,0,0,263.027,249.882Z" transform="translate(-255.841 -245.969)" fill="#f5f5f5"/>
      <path id="Path_50" data-name="Path 50" d="M169.424,205.331h-.979q.013-.052.027-.1c.39-.081.622-.207.691-.375a.31.31,0,0,0-.052-.312.344.344,0,0,0-.351-.15c-.2.04-.373.253-.5.593a1.6,1.6,0,0,0-.8.347,2.153,2.153,0,0,0-.288-.923.139.139,0,1,0-.231.154,2.006,2.006,0,0,1,.254,1.034,1.1,1.1,0,0,1-.833,1.111c-.156,0-.224-.185-.254-.342a1.6,1.6,0,0,0,.667-.735,1.1,1.1,0,0,0-.092-.753l-.01-.024.009.008a.139.139,0,0,0,.2-.2c-.081-.081-.239-.209-.382-.149a.236.236,0,0,0-.133.247.591.591,0,0,0,.065.223.84.84,0,0,1,.078.576,1.175,1.175,0,0,1-.455.5.137.137,0,0,0-.105-.051h0a.139.139,0,0,0-.139.139c0,.025,0,.052,0,.079a7.3,7.3,0,0,1-.894.489.139.139,0,0,0,.058.265.137.137,0,0,0,.057-.012,8,8,0,0,0,.83-.444.54.54,0,0,0,.5.457,1.18,1.18,0,0,0,.929-.679.807.807,0,0,0,.093.133,1.566,1.566,0,0,0,1.061.408.139.139,0,0,0,.01-.277.3.3,0,0,1-.173-.084.238.238,0,0,1-.045-.182c.014-.171.566-.3,1.053-.307a.139.139,0,0,0,.129-.092l.139-.391a.139.139,0,0,0-.131-.185Zm-.61-.663h.011c.013,0,.034.007.062.044.005.007.022.031.018.042-.016.039-.112.1-.312.163C168.681,204.744,168.767,204.677,168.814,204.667Zm-.839,1.826a.851.851,0,0,1-.384-.234.59.59,0,0,1-.123-.489.408.408,0,0,1,.029-.059c.2-.018.718.059.754.209a.466.466,0,0,0-.294.362A.586.586,0,0,0,167.975,206.493Z" transform="translate(-162.292 -202.535)" fill="#f5f5f5"/>
      <path id="Path_51" data-name="Path 51" d="M291.211,166.582l-.139-.417a.139.139,0,0,0-.27.058c.1.958.277,2.828.277,3.042,0,.193-.342.571-.9.848a.139.139,0,0,0,.124.248c.505-.253,1.049-.7,1.049-1.1,0-.205-.142-1.682-.223-2.511A.139.139,0,0,0,291.211,166.582Z" transform="translate(-282.568 -165.783)" fill="#f5f5f5"/>
      <path id="Path_52" data-name="Path 52" d="M335.8,193.9a.139.139,0,0,0,.233-.133.7.7,0,0,1-.02-.27.141.141,0,0,0,.144-.119.139.139,0,0,0-.118-.157.251.251,0,0,0-.229.077.318.318,0,0,0-.07.149l-.161-.161a.139.139,0,0,0-.2.2Z" transform="translate(-326.001 -191.85)" fill="#f5f5f5"/>
      <path id="Path_53" data-name="Path 53" d="M340.708,213.289l-.521.373a.139.139,0,1,0,.162.226l.521-.373a.139.139,0,1,0-.162-.226Z" transform="translate(-330.593 -211.093)" fill="#f5f5f5"/>
      <path id="Path_54" data-name="Path 54" d="M352.771,225.715a.139.139,0,0,0,.012.184.385.385,0,0,1,.028.2.139.139,0,0,0,.134.144h.005a.139.139,0,0,0,.139-.134c.01-.283-.083-.387-.123-.418A.139.139,0,0,0,352.771,225.715Z" transform="translate(-342.703 -222.997)" fill="#f5f5f5"/>
      <path id="Path_55" data-name="Path 55" d="M323.914,169.532a.139.139,0,0,0,.139-.139c0-.2-.011-.434-.028-.672a5.063,5.063,0,0,1,.326.6.139.139,0,0,0,.128.084.137.137,0,0,0,.055-.011.139.139,0,0,0,.073-.182,7.643,7.643,0,0,0-.635-1.1c-.054-.51-.126-1.009-.181-1.368a.134.134,0,0,0,.087-.022.078.078,0,1,1,.077-.086.505.505,0,0,1,.051.34.139.139,0,0,0,.108.164l.028,0a.139.139,0,0,0,.136-.111.787.787,0,0,0-.088-.545.139.139,0,0,0-.192-.043.137.137,0,0,0-.062.126.135.135,0,0,0-.016-.04l-.234-.365a.139.139,0,0,0-.254.1c0,.011.108.62.2,1.355-.107-.15-.213-.3-.316-.438-.017-.21-.034-.4-.048-.565l.023-.009a.139.139,0,0,0,.062-.186l-.139-.278a.139.139,0,0,0-.262.076c.017.166.034.349.051.542-.088-.116-.169-.222-.239-.312a.139.139,0,0,0-.028-.23l-.278-.139a.139.139,0,0,0-.171.211c.007.009.349.438.759.991a11.171,11.171,0,0,1,.051,2.073c-.012.037-.034.08-.054.081-.084.012-.284-.176-.385-.377a.193.193,0,0,0-.186-.126c-.149.009-.208.173-.313.472a1.955,1.955,0,0,1-.276.588,1.578,1.578,0,0,1-.173-.547.138.138,0,0,0,.268-.047c0-.207-.145-1.785-.226-2.649a.139.139,0,0,0,.08-.173l-.139-.417a.139.139,0,0,0-.27.057c.094.991.271,2.9.277,3.169v-.007a.139.139,0,1,0-.275.039c.041.284.144.772.383.852a.232.232,0,0,0,.074.012.273.273,0,0,0,.2-.091,2,2,0,0,0,.344-.694c.02-.058.045-.126.067-.184.127.186.35.418.575.4a.341.341,0,0,0,.3-.27,7.82,7.82,0,0,0-.005-1.734c.117.164.234.332.346.5.043.416.074.833.074,1.175A.139.139,0,0,0,323.914,169.532Z" transform="translate(-312.633 -165.79)" fill="#f5f5f5"/>
      <path id="Path_56" data-name="Path 56" d="M382.32,169.215c-.1-.733-.235-1.582-.322-2.1a.137.137,0,0,0,.116-.025.139.139,0,0,0,.026-.195l-.252-.33a.139.139,0,0,0-.247.108c0,.014.25,1.44.4,2.581a1.3,1.3,0,0,1-.229,1.042.614.614,0,0,1-.509.19.139.139,0,1,0-.017.277l.069,0a.877.877,0,0,0,.661-.28A1.551,1.551,0,0,0,382.32,169.215Z" transform="translate(-369.985 -166.204)" fill="#f5f5f5"/>
      <path id="Path_57" data-name="Path 57" d="M371.051,256.175a.141.141,0,0,0,.007.2.058.058,0,0,1,.017.029.065.065,0,0,1-.021.031.139.139,0,1,0,.2.2.315.315,0,0,0,.1-.237.331.331,0,0,0-.109-.226A.138.138,0,0,0,371.051,256.175Z" transform="translate(-360.244 -252.249)" fill="#f5f5f5"/>
      <path id="Path_58" data-name="Path 58" d="M152.569,326.9H151.6v-.139a.139.139,0,0,0-.278,0v.139h-7.362a1.939,1.939,0,0,0,1.25.417h6.112v.278a.139.139,0,0,0,.139.139h1.111a.417.417,0,1,0,0-.833Zm0,.556H151.6v-.139h1.111l-.025-.075a.135.135,0,0,1,.025.075A.139.139,0,0,1,152.569,327.453Z" transform="translate(-142.251 -319.925)" fill="#f5f5f5"/>
    </g>
  </g>
</svg>
