<svg xmlns="http://www.w3.org/2000/svg" xmlns:xlink="http://www.w3.org/1999/xlink" width="173" height="56" viewBox="0 0 173 56">
  <defs>
    <filter id="Rectangle_177" x="0" y="0" width="173" height="56" filterUnits="userSpaceOnUse">
      <feOffset input="SourceAlpha"/>
      <feGaussianBlur stdDeviation="1.5" result="blur"/>
      <feFlood flood-color="#cfcfcf"/>
      <feComposite operator="in" in2="blur"/>
      <feComposite in="SourceGraphic"/>
    </filter>
  </defs>
  <g id="tw" transform="translate(-11.5 -563.094)">
    <g id="Group_17318" data-name="Group 17318" transform="translate(16 568)">
      <g transform="matrix(1, 0, 0, 1, -4.5, -4.91)" filter="url(#Rectangle_177)">
        <rect id="Rectangle_177-2" data-name="Rectangle 177" width="164" height="47" rx="5" transform="translate(4.5 4.5)" fill="#03a9f4"/>
      </g>
    </g>
    <g id="svgexport-6_15_" data-name="svgexport-6 (15)" transform="translate(85 580.594)">
      <path id="Path_11861" data-name="Path 11861" d="M26.209,50.521a11.2,11.2,0,0,1-3.1.849,5.343,5.343,0,0,0,2.364-2.97,10.738,10.738,0,0,1-3.407,1.3,5.373,5.373,0,0,0-9.294,3.674A5.533,5.533,0,0,0,12.9,54.6,15.208,15.208,0,0,1,1.825,48.98a5.374,5.374,0,0,0,1.651,7.181A5.306,5.306,0,0,1,1.048,55.5v.059a5.4,5.4,0,0,0,4.3,5.279,5.362,5.362,0,0,1-1.409.177,4.751,4.751,0,0,1-1.017-.092,5.424,5.424,0,0,0,5.021,3.743,10.8,10.8,0,0,1-6.662,2.292A10.063,10.063,0,0,1,0,66.883a15.127,15.127,0,0,0,8.243,2.411,15.187,15.187,0,0,0,15.293-15.29c0-.238-.008-.467-.02-.695A10.719,10.719,0,0,0,26.209,50.521Z" transform="translate(0 -48)" fill="#fff"/>
    </g>
  </g>
</svg>
