<svg xmlns="http://www.w3.org/2000/svg" width="31.789" height="31.791" viewBox="0 0 31.789 31.791">
  <g id="اتصل_بنا" data-name="اتصل بنا" transform="translate(-327 -594)">
    <g id="Group_29" data-name="Group 29" transform="translate(303 56)">
      <circle id="Ellipse_18" data-name="Ellipse 18" cx="15.425" cy="15.425" r="15.425" transform="translate(24.5 538.5)" fill="#fab300"/>
      <path id="Path_97" data-name="Path 97" d="M78.407,56.82A15.426,15.426,0,0,1,56.82,78.407,15.426,15.426,0,1,0,78.407,56.82Z" transform="translate(-29.292 485.18)" fill="#fee9b5"/>
      <path id="Path_103" data-name="Path 103" d="M30.463,9.529a15.839,15.839,0,0,0-3.6-5.141.469.469,0,0,0-.648.679A14.941,14.941,0,0,1,27.751,25a5.241,5.241,0,0,1-.651.788,14.933,14.933,0,0,1-22.412,0c-.325-.368-.429-.5-.651-.789A14.953,14.953,0,0,1,24.694,3.8a.469.469,0,1,0,.553-.759A15.775,15.775,0,0,0,15.894,0a16.3,16.3,0,0,0-5.786,1.081A15.5,15.5,0,0,0,4.655,4.655,15.894,15.894,0,0,0,27.133,27.133a15.91,15.91,0,0,0,3.329-17.6Z" transform="translate(24 538)"/>
    </g>
    <g id="svgexport-6_1_" data-name="svgexport-6 (1)" transform="translate(325.156 592.207)">
      <g id="_x35_-Talk_On_Phone" transform="translate(7.843 8.793)">
        <g id="Group_17401" data-name="Group 17401">
          <path id="Path_11977" data-name="Path 11977" d="M24.437,23.487l-2.532-1.769a1.953,1.953,0,0,0-2.721.484l-.588.842a21.758,21.758,0,0,1-3.132-2.63,21.782,21.782,0,0,1-2.63-3.132l.842-.587a1.952,1.952,0,0,0,.484-2.722l-1.769-2.532a1.953,1.953,0,0,0-2.233-.731,3.544,3.544,0,0,0-.658.323l-.35.247a2.713,2.713,0,0,0-.246.22A3.508,3.508,0,0,0,8,13.1C7.275,15.836,9.08,19.967,12.5,23.382c2.869,2.869,6.315,4.651,8.994,4.651h0a5,5,0,0,0,1.285-.159,3.511,3.511,0,0,0,1.6-.9,2.6,2.6,0,0,0,.232-.262l.246-.352a3.476,3.476,0,0,0,.311-.641,1.923,1.923,0,0,0-.731-2.233Z" transform="translate(-7.843 -9.894)" fill="#7a7979"/>
        </g>
      </g>
    </g>
    <path id="Path_11978" data-name="Path 11978" d="M39.927,8.793h-9.38a.391.391,0,0,0-.391.391v5.471a.391.391,0,0,0,.391.391h1.387l.932,1.986a.391.391,0,0,0,.708,0l.933-1.986h5.42a.391.391,0,0,0,.391-.391V9.184A.391.391,0,0,0,39.927,8.793Zm-1.979,4.3H32.526a.391.391,0,1,1,0-.782h5.423a.391.391,0,0,1,0,.782Zm0-1.563H32.526a.391.391,0,1,1,0-.782h5.423a.391.391,0,0,1,0,.782Z" transform="translate(311.564 592.207)" fill="#fff" opacity="0.89"/>
  </g>
</svg>
