<svg id="المكان" xmlns="http://www.w3.org/2000/svg" width="20.932" height="20.932" viewBox="0 0 20.932 20.932">
  <g id="Group_17372" data-name="Group 17372" transform="translate(0 0)">
    <path id="Path_11949" data-name="Path 11949" d="M20.318,9.853h-.675a9.2,9.2,0,0,0-8.565-8.565V.613a.613.613,0,1,0-1.226,0v.675A9.2,9.2,0,0,0,1.288,9.853H.613a.613.613,0,1,0,0,1.226h.675a9.2,9.2,0,0,0,8.565,8.565v.675a.613.613,0,1,0,1.226,0v-.675a9.2,9.2,0,0,0,8.565-8.565h.675a.613.613,0,1,0,0-1.226Zm-9.239,8.562v-.631a.613.613,0,0,0-1.226,0v.631a7.985,7.985,0,0,1-7.335-7.335h.631a.613.613,0,0,0,0-1.226H2.517A7.985,7.985,0,0,1,9.853,2.517v.631a.613.613,0,0,0,1.226,0V2.517a7.985,7.985,0,0,1,7.335,7.335h-.631a.613.613,0,0,0,0,1.226h.631A7.985,7.985,0,0,1,11.079,18.414Z" transform="translate(0 0)" fill="#fab300"/>
    <circle id="Ellipse_97" data-name="Ellipse 97" cx="0.5" cy="0.5" r="0.5" transform="translate(10 9)" fill="#fab300"/>
    <path id="Path_11950" data-name="Path 11950" d="M155.357,121a4.286,4.286,0,0,0-3.434,6.85l2.943,3.941a.613.613,0,0,0,.983,0l2.943-3.941a4.286,4.286,0,0,0-3.434-6.85Zm0,6.132a1.84,1.84,0,1,1,1.84-1.84A1.842,1.842,0,0,1,155.357,127.132Z" transform="translate(-144.891 -116.053)" fill="#fab300"/>
  </g>
</svg>
