<svg xmlns="http://www.w3.org/2000/svg" width="31.789" height="31.791" viewBox="0 0 31.789 31.791">
  <g id="تسجيل_خروح" data-name="تسجيل خروح" transform="translate(-24 -606)">
    <circle id="Ellipse_17" data-name="Ellipse 17" cx="15.425" cy="15.425" r="15.425" transform="translate(24.5 606.5)" fill="#fab300"/>
    <g id="logout" transform="translate(32.16 613.152)">
      <path id="Path_85" data-name="Path 85" d="M37.307,13.691a2.283,2.283,0,0,1-2.281,2.281h-2.09a.759.759,0,0,1-.71-.49L26.715,1.039a.76.76,0,0,1,.71-1.031h7.6a2.283,2.283,0,0,1,2.281,2.281Zm0,0" transform="translate(-25.715 0)" fill="#cfcfcf"/>
      <path id="Path_86" data-name="Path 86" d="M22.461,18.478V32.161a.95.95,0,0,1-.95.95,1.014,1.014,0,0,1-.3-.046l-4.561-1.52a.963.963,0,0,1-.646-.9V16.958a.951.951,0,0,1,.95-.95,1.013,1.013,0,0,1,.3.046l4.561,1.52A.963.963,0,0,1,22.461,18.478Zm0,0" transform="translate(-15.43 -15.43)" fill="#7a7979"/>
      <path id="Path_87" data-name="Path 87" d="M5.6,18.243,1.03,16.72A1.528,1.528,0,0,1,0,15.278V1.594A1.531,1.531,0,0,1,2,.149L6.571,1.672A1.528,1.528,0,0,1,7.6,3.115V16.8a1.522,1.522,0,0,1-1.52,1.52,1.6,1.6,0,0,1-.484-.075ZM1.14,1.594V15.278a.393.393,0,0,0,.256.364l4.548,1.516a.4.4,0,0,0,.517-.36V3.115a.392.392,0,0,0-.256-.364L1.656,1.235a.433.433,0,0,0-.136-.021.38.38,0,0,0-.38.38Zm0,0" transform="translate(0 -0.066)" fill="#64b5f6"/>
      <path id="Path_88" data-name="Path 88" d="M285.124,209.148H277.9a.57.57,0,0,1,0-1.14h7.222a.57.57,0,0,1,0,1.14Zm0,0" transform="translate(-267.45 -200.588)"/>
      <path id="Path_89" data-name="Path 89" d="M400.574,134.813a.57.57,0,0,1-.4-.974l2.448-2.448-2.448-2.448a.57.57,0,1,1,.807-.806l2.851,2.851a.57.57,0,0,1,0,.806l-2.851,2.851A.566.566,0,0,1,400.574,134.813Zm0,0" transform="translate(-385.751 -123.402)"/>
      <path id="Path_90" data-name="Path 90" d="M6.081,18.252a1.567,1.567,0,0,1-.471-.071L1.035,16.657A1.534,1.534,0,0,1,0,15.212V1.528A1.522,1.522,0,0,1,1.52.008a1.568,1.568,0,0,1,.471.071L6.566,1.6A1.534,1.534,0,0,1,7.6,3.049V16.732a1.522,1.522,0,0,1-1.52,1.52ZM1.52,1.148a.381.381,0,0,0-.38.38V15.212a.4.4,0,0,0,.264.366L5.957,17.1a.413.413,0,0,0,.124.017.381.381,0,0,0,.38-.38V3.049A.4.4,0,0,0,6.2,2.682L1.644,1.165a.413.413,0,0,0-.124-.017Zm0,0" transform="translate(0 0)"/>
      <path id="Path_91" data-name="Path 91" d="M37.31,6.089a.57.57,0,0,1-.57-.57V2.1a.951.951,0,0,0-.95-.95H27.238a.57.57,0,0,1,0-1.14H35.79A2.092,2.092,0,0,1,37.88,2.1V5.519A.57.57,0,0,1,37.31,6.089Zm0,0" transform="translate(-25.718)"/>
      <path id="Path_92" data-name="Path 92" d="M184.943,283.421H181.9a.57.57,0,1,1,0-1.14h3.041a.951.951,0,0,0,.95-.95V277.91a.57.57,0,1,1,1.14,0v3.421A2.092,2.092,0,0,1,184.943,283.421Zm0,0" transform="translate(-174.871 -267.45)"/>
    </g>
    <path id="Path_98" data-name="Path 98" d="M78.407,56.82A15.426,15.426,0,0,1,56.82,78.407,15.426,15.426,0,1,0,78.407,56.82Z" transform="translate(-29.292 553.18)" fill="#fee9b5"/>
    <path id="Path_101" data-name="Path 101" d="M30.463,9.529a15.839,15.839,0,0,0-3.6-5.141.469.469,0,0,0-.648.679A14.941,14.941,0,0,1,27.751,25a5.241,5.241,0,0,1-.651.788,14.933,14.933,0,0,1-22.412,0c-.325-.368-.429-.5-.651-.789A14.953,14.953,0,0,1,24.694,3.8a.469.469,0,1,0,.553-.759A15.775,15.775,0,0,0,15.894,0a16.3,16.3,0,0,0-5.786,1.081A15.5,15.5,0,0,0,4.655,4.655,15.894,15.894,0,0,0,27.133,27.133a15.91,15.91,0,0,0,3.329-17.6Z" transform="translate(24 606)"/>
  </g>
</svg>
