<svg xmlns="http://www.w3.org/2000/svg" xmlns:xlink="http://www.w3.org/1999/xlink" width="56" height="56" viewBox="0 0 56 56">
  <defs>
    <filter id="Ellipse_94" x="0" y="0" width="56" height="56" filterUnits="userSpaceOnUse">
      <feOffset input="SourceAlpha"/>
      <feGaussianBlur stdDeviation="3" result="blur"/>
      <feFlood flood-color="#a1a1a1" flood-opacity="0.259"/>
      <feComposite operator="in" in2="blur"/>
      <feComposite in="SourceGraphic"/>
    </filter>
  </defs>
  <g id="تفاصيل_الحجز" data-name="تفاصيل الحجز" transform="translate(-247 -140)">
    <g transform="matrix(1, 0, 0, 1, 247, 140)" filter="url(#Ellipse_94)">
      <circle id="Ellipse_94-2" data-name="Ellipse 94" cx="19" cy="19" r="19" transform="translate(9 9)" fill="#fff"/>
    </g>
    <g id="svgexport-6_24_" data-name="svgexport-6 (24)" transform="translate(265 158)">
      <g id="Group_17353" data-name="Group 17353" transform="translate(0 0)">
        <path id="Path_11943" data-name="Path 11943" d="M165.505,94.807V92.562a.563.563,0,0,0-.784-.517l-7.878,3.376a.563.563,0,0,0-.341.517V103.7a3.3,3.3,0,0,0-1.688-.446,3.224,3.224,0,0,0-1.929.607,1.97,1.97,0,0,0,0,3.288,3.369,3.369,0,0,0,3.858,0,2.076,2.076,0,0,0,.884-1.644V98.56l6.753-2.894v4.657a3.3,3.3,0,0,0-1.688-.446,3.224,3.224,0,0,0-1.929.607,1.97,1.97,0,0,0,0,3.288,3.369,3.369,0,0,0,3.858,0,2.076,2.076,0,0,0,.884-1.644ZM154.814,106.63c-.915,0-1.688-.515-1.688-1.125s.773-1.125,1.688-1.125,1.688.515,1.688,1.125S155.729,106.63,154.814,106.63Zm2.814-9.294V96.309l6.753-2.894v1.026Zm5.065,5.918c-.915,0-1.688-.515-1.688-1.125s.773-1.125,1.688-1.125,1.688.515,1.688,1.125S163.607,103.254,162.692,103.254Z" transform="translate(-146.298 -88.548)" fill="#a1a1a1"/>
        <path id="Path_11944" data-name="Path 11944" d="M7.878,6.191a3.3,3.3,0,0,1-.961,1.853.563.563,0,0,0,.8.8A4.364,4.364,0,0,0,9,6.191a7.329,7.329,0,0,0-1.8-4A20.894,20.894,0,0,0,5.463.166a.563.563,0,0,0-.961.4V8.326a3.3,3.3,0,0,0-1.688-.446,3.224,3.224,0,0,0-1.929.607A2.076,2.076,0,0,0,0,10.13a2.076,2.076,0,0,0,.884,1.644,3.224,3.224,0,0,0,1.929.607,3.224,3.224,0,0,0,1.929-.607,2.076,2.076,0,0,0,.884-1.644V2.021c1.015,1.208,2.251,2.964,2.251,4.17ZM2.814,11.256c-.915,0-1.688-.515-1.688-1.125S1.9,9,2.814,9,4.5,9.52,4.5,10.13,3.729,11.256,2.814,11.256Z" transform="translate(0 -0.001)" fill="#a1a1a1"/>
      </g>
    </g>
  </g>
</svg>
