<svg xmlns="http://www.w3.org/2000/svg" width="31.789" height="31.85" viewBox="0 0 31.789 31.85">
  <g id="حجوزاتي" transform="translate(-327.211 -350)">
    <g id="Group_17400" data-name="Group 17400" transform="translate(303.211 24)">
      <circle id="Ellipse_2" data-name="Ellipse 2" cx="15.425" cy="15.425" r="15.425" transform="translate(24.5 327)" fill="#fab300"/>
      <path id="Path_94" data-name="Path 94" d="M78.407,56.82A15.426,15.426,0,0,1,56.82,78.407,15.426,15.426,0,1,0,78.407,56.82Z" transform="translate(-29.292 273.18)" fill="#fee9b5"/>
      <path id="Path_99" data-name="Path 99" d="M30.463,9.529a15.839,15.839,0,0,0-3.6-5.141.469.469,0,0,0-.648.679A14.941,14.941,0,0,1,27.751,25a5.241,5.241,0,0,1-.651.788,14.933,14.933,0,0,1-22.412,0c-.325-.368-.429-.5-.651-.789A14.953,14.953,0,0,1,24.694,3.8a.469.469,0,1,0,.553-.759A15.775,15.775,0,0,0,15.894,0a16.3,16.3,0,0,0-5.786,1.081A15.5,15.5,0,0,0,4.655,4.655,15.894,15.894,0,0,0,27.133,27.133a15.91,15.91,0,0,0,3.329-17.6Z" transform="translate(24 326)"/>
    </g>
    <g id="svgexport-6" transform="translate(334.211 357)">
      <g id="Group_17399" data-name="Group 17399" transform="translate(0)">
        <g id="Group_17397" data-name="Group 17397" transform="translate(0.511 1.604)">
          <g id="Group_17394" data-name="Group 17394" transform="translate(0 3.282)">
            <g id="Group_17393" data-name="Group 17393">
              <path id="Path_11968" data-name="Path 11968" d="M15,154.2a1.371,1.371,0,0,0,1.367,1.367H30.04a1.371,1.371,0,0,0,1.367-1.367V143.533H15V154.2Z" transform="translate(-14.999 -143.533)" fill="#e7f0ef"/>
            </g>
          </g>
          <g id="Group_17396" data-name="Group 17396" transform="translate(0)">
            <g id="Group_17395" data-name="Group 17395">
              <path id="Path_11969" data-name="Path 11969" d="M30.04,47.133H16.366A1.371,1.371,0,0,0,15,48.5v1.914H31.407V48.5A1.371,1.371,0,0,0,30.04,47.133Z" transform="translate(-14.999 -47.133)" fill="#ff5b5b"/>
            </g>
          </g>
        </g>
        <g id="Group_17398" data-name="Group 17398">
          <path id="Path_11970" data-name="Path 11970" d="M15.551,1.094h-1.4V.511a.511.511,0,0,0-1.021,0v.583h-2.26V.511a.511.511,0,1,0-1.021,0v.583H7.584V.511a.511.511,0,1,0-1.021,0v.583H4.3V.511a.511.511,0,1,0-1.021,0v.583h-1.4A1.88,1.88,0,0,0,0,2.972V15.551a1.88,1.88,0,0,0,1.878,1.878H15.551a1.88,1.88,0,0,0,1.878-1.878V2.972a1.88,1.88,0,0,0-1.878-1.878ZM1.878,2.115h1.4V2.7A.511.511,0,1,0,4.3,2.7V2.115h2.26V2.7a.511.511,0,1,0,1.021,0V2.115h2.26V2.7a.511.511,0,1,0,1.021,0V2.115h2.26V2.7a.511.511,0,1,0,1.021,0V2.115h1.4a.858.858,0,0,1,.857.857v1.4H1.021v-1.4a.858.858,0,0,1,.857-.857ZM15.551,16.408H1.878a.858.858,0,0,1-.857-.857V5.4H16.408V15.551A.858.858,0,0,1,15.551,16.408Z" transform="translate(0)"/>
          <path id="Path_11971" data-name="Path 11971" d="M75,208.867H72.81a.511.511,0,0,0-.511.511v2.188a.511.511,0,0,0,.511.511H75a.511.511,0,0,0,.511-.511v-2.188A.511.511,0,0,0,75,208.867Zm-.511,2.188H73.32v-1.166h1.167Z" transform="translate(-69.838 -201.757)"/>
          <path id="Path_11972" data-name="Path 11972" d="M348.131,208.867h-2.188a.511.511,0,0,0-.511.511v2.188a.511.511,0,0,0,.511.511h2.188a.511.511,0,0,0,.511-.511v-2.188A.511.511,0,0,0,348.131,208.867Zm-.511,2.188h-1.166v-1.166h1.166Z" transform="translate(-333.674 -201.757)"/>
          <path id="Path_11973" data-name="Path 11973" d="M75,337.4H72.81a.511.511,0,0,0-.511.511V340.1a.511.511,0,0,0,.511.511H75a.511.511,0,0,0,.511-.511v-2.188A.511.511,0,0,0,75,337.4Zm-.511,2.188H73.32v-1.166h1.167Z" transform="translate(-69.838 -325.914)"/>
          <path id="Path_11974" data-name="Path 11974" d="M348.131,337.4h-2.188a.511.511,0,0,0-.511.511V340.1a.511.511,0,0,0,.511.511h2.188a.511.511,0,0,0,.511-.511v-2.188A.511.511,0,0,0,348.131,337.4Zm-.511,2.188h-1.166v-1.166h1.166Z" transform="translate(-333.674 -325.914)"/>
          <path id="Path_11975" data-name="Path 11975" d="M211.563,337.4h-2.188a.511.511,0,0,0-.511.511V340.1a.511.511,0,0,0,.511.511h2.188a.511.511,0,0,0,.511-.511v-2.188A.511.511,0,0,0,211.563,337.4Zm-.511,2.188h-1.167v-1.166h1.167Z" transform="translate(-201.755 -325.914)"/>
          <path id="Path_11976" data-name="Path 11976" d="M209.389,218.429l-1.186,1.186-.412-.412a.511.511,0,0,0-.722.722l.773.774a.511.511,0,0,0,.722,0l1.547-1.547a.511.511,0,0,0-.722-.722Z" transform="translate(-199.875 -210.849)"/>
        </g>
      </g>
    </g>
  </g>
</svg>
