<svg xmlns="http://www.w3.org/2000/svg" xmlns:xlink="http://www.w3.org/1999/xlink" width="31.789" height="31.789" viewBox="0 0 31.789 31.789">
  <defs>
    <linearGradient id="linear-gradient" x1="0.5" x2="0.5" y2="1" gradientUnits="objectBoundingBox">
      <stop offset="0" stop-color="#fab300"/>
      <stop offset="1" stop-color="#fab300"/>
    </linearGradient>
  </defs>
  <g id="حسابي" transform="translate(-24 -255)">
    <g id="administrator" transform="translate(24 255)">
      <g id="Group_2" data-name="Group 2" transform="translate(0.469 0.469)">
        <circle id="Ellipse_1" data-name="Ellipse 1" cx="15.425" cy="15.425" r="15.425" fill="url(#linear-gradient)"/>
      </g>
      <g id="Group_3" data-name="Group 3" transform="translate(3.528 3.528)">
        <path id="Path_5" data-name="Path 5" d="M78.407,56.82A15.426,15.426,0,0,1,56.82,78.407,15.426,15.426,0,1,0,78.407,56.82Z" transform="translate(-56.82 -56.82)" fill="#fee9b5"/>
      </g>
      <g id="Group_4" data-name="Group 4" transform="translate(10.129 3.845)">
        <path id="Path_6" data-name="Path 6" d="M163.148,66.188v3.08h11.888v-3.08a4.255,4.255,0,0,0-4.255-4.255H167.4A4.255,4.255,0,0,0,163.148,66.188Z" transform="translate(-163.148 -61.933)" fill="#784033"/>
      </g>
      <g id="Group_5" data-name="Group 5" transform="translate(14.384 3.845)">
        <path id="Path_7" data-name="Path 7" d="M235.058,61.933H231.68a4.255,4.255,0,0,1,4.255,4.255v3.08h3.378v-3.08A4.255,4.255,0,0,0,235.058,61.933Z" transform="translate(-231.68 -61.933)" fill="#61362b"/>
      </g>
      <g id="Group_6" data-name="Group 6" transform="translate(4.133 20.95)">
        <path id="Path_8" data-name="Path 8" d="M90.094,342.349a8.136,8.136,0,0,0-7.476-4.924H74.048a8.136,8.136,0,0,0-7.476,4.924,15.423,15.423,0,0,0,23.522,0Z" transform="translate(-66.572 -337.425)" fill="#ecf4ff"/>
      </g>
      <g id="Group_7" data-name="Group 7" transform="translate(4.133 22.385)">
        <path id="Path_9" data-name="Path 9" d="M90.094,364.029a8.164,8.164,0,0,0-2.863-3.489,15.427,15.427,0,0,1-20.545,3.236c-.039.083-.078.168-.114.252a15.423,15.423,0,0,0,23.522,0Z" transform="translate(-66.572 -360.54)" fill="#ddeafb"/>
      </g>
      <g id="Group_8" data-name="Group 8" transform="translate(21.174 11.306)">
        <path id="Path_10" data-name="Path 10" d="M341.5,183.384c-.609,1.293-.662,3.013.1,3.373s2.057-.776,2.666-2.069.216-2.066-.549-2.426S342.113,182.091,341.5,183.384Z" transform="translate(-341.04 -182.101)" fill="#ffcbbe"/>
      </g>
      <g id="Group_9" data-name="Group 9" transform="translate(21.174 11.306)">
        <path id="Path_11" data-name="Path 11" d="M341.5,183.384c-.609,1.293-.662,3.013.1,3.373s2.057-.776,2.666-2.069.216-2.066-.549-2.426S342.113,182.091,341.5,183.384Z" transform="translate(-341.04 -182.101)" fill="#eaac9d"/>
      </g>
      <g id="Group_10" data-name="Group 10" transform="translate(11.903 18.312)">
        <path id="Path_12" data-name="Path 12" d="M196.617,301.353h-1.454a3.443,3.443,0,0,1-3.443-3.443v-2.972h8.34v2.972A3.443,3.443,0,0,1,196.617,301.353Z" transform="translate(-191.72 -294.938)" fill="#eaac9d"/>
      </g>
      <path id="Path_13" data-name="Path 13" d="M241.544,294.938v2.972a3.443,3.443,0,0,1-2.913,3.4,3.471,3.471,0,0,0,.53.041h1.454a3.443,3.443,0,0,0,3.443-3.443v-2.972Z" transform="translate(-223.815 -276.626)" fill="#df9380"/>
      <g id="Group_11" data-name="Group 11" transform="translate(10.129 9.375)">
        <path id="Path_14" data-name="Path 14" d="M173.955,150.994h-9.728a1.08,1.08,0,0,0-1.08,1.08v3.843a6.281,6.281,0,0,0,2.777,5.213l1.727,1.161a2.58,2.58,0,0,0,2.878,0l1.727-1.161a6.281,6.281,0,0,0,2.777-5.213v-3.843A1.079,1.079,0,0,0,173.955,150.994Z" transform="translate(-163.147 -150.994)" fill="#ffcbbe"/>
      </g>
      <g id="Group_12" data-name="Group 12" transform="translate(15.19 9.375)">
        <path id="Path_15" data-name="Path 15" d="M249.712,150.993v4.923a6.281,6.281,0,0,1-2.777,5.213l-1.727,1.161a2.576,2.576,0,0,1-.556.281,2.579,2.579,0,0,0,2.323-.281l1.727-1.161a6.281,6.281,0,0,0,2.777-5.213v-3.843a1.08,1.08,0,0,0-1.08-1.08h-.687Z" transform="translate(-244.652 -150.993)" fill="#eaac9d"/>
      </g>
      <g id="Group_13" data-name="Group 13" transform="translate(7.441 11.306)">
        <path id="Path_16" data-name="Path 16" d="M122.912,183.384c.609,1.293.662,3.013-.1,3.373s-2.057-.776-2.666-2.069-.216-2.066.549-2.426S122.3,182.091,122.912,183.384Z" transform="translate(-119.845 -182.101)" fill="#ffcbbe"/>
      </g>
      <g id="Group_14" data-name="Group 14" transform="translate(0 0)">
        <path id="Path_17" data-name="Path 17" d="M30.463,9.529a15.839,15.839,0,0,0-3.6-5.141.469.469,0,0,0-.648.679A14.941,14.941,0,0,1,27.751,25a8.636,8.636,0,0,0-7.039-4.5V18.859A6.733,6.733,0,0,0,22.119,16.5c1.015-.048,2.161-1.231,2.713-2.4.648-1.377.359-2.517-.774-3.051a1.85,1.85,0,0,0-1.572-.055V8.1a4.73,4.73,0,0,0-4.724-4.724H14.384A4.73,4.73,0,0,0,9.66,8.1v2.888a1.851,1.851,0,0,0-1.572.055c-1.133.534-1.422,1.674-.774,3.051.564,1.2,1.7,2.355,2.713,2.4a6.734,6.734,0,0,0,1.406,2.362v1.625A8.559,8.559,0,0,0,6.84,21.922a.469.469,0,1,0,.521.781,7.623,7.623,0,0,1,4.077-1.281A3.944,3.944,0,0,0,15.374,25.2h1.4a3.944,3.944,0,0,0,3.935-3.758A7.693,7.693,0,0,1,27.1,25.787a14.933,14.933,0,0,1-22.412,0A7.66,7.66,0,0,1,5.936,23.93a.469.469,0,0,0-.695-.631,8.605,8.605,0,0,0-1.2,1.7A14.953,14.953,0,0,1,24.694,3.8a.469.469,0,1,0,.553-.759A15.9,15.9,0,0,0,0,15.894,15.894,15.894,0,0,0,27.133,27.133a15.91,15.91,0,0,0,3.329-17.6Zm-6.8,2.363c.237.112.96.452.324,1.8a3.9,3.9,0,0,1-1.6,1.782,6.772,6.772,0,0,0,.1-1.178V12.129A.908.908,0,0,1,23.658,11.892ZM14.384,4.315h3.378A3.79,3.79,0,0,1,21.548,8.1v.931a1.539,1.539,0,0,0-.61-.125H11.209a1.54,1.54,0,0,0-.61.125V8.1A3.79,3.79,0,0,1,14.384,4.315ZM8.164,13.693c-.635-1.349.087-1.689.324-1.8a.908.908,0,0,1,1.172.236v.032a.469.469,0,1,0,.939,0V10.454a.611.611,0,0,1,.61-.61h9.728a.611.611,0,0,1,.61.61V14.3a5.8,5.8,0,0,1-2.57,4.824l-1.727,1.161a2.1,2.1,0,0,1-2.355,0l-1.727-1.161A5.8,5.8,0,0,1,10.6,14.3a.469.469,0,1,0-.939,0,6.769,6.769,0,0,0,.1,1.183A3.9,3.9,0,0,1,8.164,13.693Zm8.609,10.564h-1.4a3,3,0,0,1-3-3v-1.55c.133.11,1.815,1.227,2,1.355a3.038,3.038,0,0,0,3.4,0c.193-.133,1.86-1.24,2-1.355v1.55A3,3,0,0,1,16.773,24.257Z" transform="translate(0 0)"/>
        <path id="Path_18" data-name="Path 18" d="M178.567,180.4a2.4,2.4,0,0,0,2.352-1.929h.769a2.4,2.4,0,1,0,0-.939h-.769a2.4,2.4,0,1,0-2.352,2.868Zm5.474-3.859a1.46,1.46,0,1,1-1.46,1.46A1.462,1.462,0,0,1,184.04,176.542Zm-5.474,0a1.46,1.46,0,1,1-1.46,1.46A1.462,1.462,0,0,1,178.567,176.542Z" transform="translate(-165.23 -164.7)"/>
        <path id="Path_19" data-name="Path 19" d="M205.12,205.2a.641.641,0,1,0-.641-.641A.641.641,0,0,0,205.12,205.2Z" transform="translate(-191.783 -191.255)"/>
        <path id="Path_20" data-name="Path 20" d="M293.28,205.2a.641.641,0,1,0-.641-.641A.641.641,0,0,0,293.28,205.2Z" transform="translate(-274.47 -191.255)"/>
        <path id="Path_21" data-name="Path 21" d="M235.863,270.047h-2.234a.469.469,0,0,0,0,.939h2.234a.469.469,0,0,0,0-.939Z" transform="translate(-218.683 -253.281)"/>
      </g>
    </g>
  </g>
</svg>
