<svg xmlns="http://www.w3.org/2000/svg" width="56.557" height="43.2" viewBox="0 0 56.557 43.2">
  <g id="حفلات_التخرج_واعياد_ميلاد" data-name="حفلات التخرج واعياد ميلاد" transform="translate(-34.765 -497.944)">
    <g id="svgexport-10_1_" data-name="svgexport-10 (1)" transform="translate(34.765 506.544)">
      <path id="Path_11847" data-name="Path 11847" d="M351.04,372.841a.587.587,0,0,1-.577-.486c-.467-2.673-2.288-3.707-1.451-6.92a.586.586,0,1,1,1.135.3c-.711,2.726.964,3.516,1.471,6.422A.587.587,0,0,1,351.04,372.841Z" transform="translate(-323.518 -338.242)" fill="#cbe3fa"/>
      <path id="Path_11848" data-name="Path 11848" d="M267.819,134.914c0,4.378-3.546,10.188-7.955,10.172-4.357-.016-7.882-5.811-7.882-10.172C251.982,124.446,267.819,124.431,267.819,134.914Z" transform="translate(-233.802 -117.744)" fill="#fff0a6"/>
      <path id="Path_11849" data-name="Path 11849" d="M254.182,136.385a11.373,11.373,0,0,0,1.109,4.642.587.587,0,0,1-1.006.594,12.159,12.159,0,0,1-2.3-6.7c0-6.283,5.7-8.8,10.266-7.542a.587.587,0,0,1-.16,1.152C258.134,128.535,254.182,131.156,254.182,136.385Z" transform="translate(-233.803 -117.748)" fill="#fff8d6"/>
      <path id="Path_11850" data-name="Path 11850" d="M181.915,395.08a.587.587,0,0,1-.582-.519c-.217-1.872-1.245-2.873-.7-5.117a.586.586,0,0,1,1.14.276c-.453,1.87.485,2.637.726,4.706a.587.587,0,0,1-.583.654Z" transform="translate(-167.538 -360.48)" fill="#cbe3fa"/>
      <path id="Path_11851" data-name="Path 11851" d="M83.663,121.107c0,5.07-4.107,11.788-9.182,11.787s-9.169-6.721-9.169-11.787C65.312,108.976,83.663,108.959,83.663,121.107Z" transform="translate(-60.816 -103.792)" fill="#ff6d7a"/>
      <path id="Path_11852" data-name="Path 11852" d="M68.977,122.573a14.162,14.162,0,0,0,2.955,8.153.733.733,0,0,1-.981,1.061c-3.312-2.116-5.639-6.866-5.639-10.68,0-6.909,5.953-9.889,11.078-8.93a.733.733,0,0,1-.008,1.444A8.646,8.646,0,0,0,68.977,122.573Z" transform="translate(-60.816 -103.791)" fill="#ff8c95"/>
      <path id="Path_11853" data-name="Path 11853" d="M116.711,252.962a.584.584,0,0,1-.337-.107,9.033,9.033,0,0,1-3.384-5.672.586.586,0,0,1,1.157-.194,7.92,7.92,0,0,0,2.9,4.908.587.587,0,0,1-.339,1.066Z" transform="translate(-104.991 -228.429)" fill="#fff"/>
      <path id="Path_11854" data-name="Path 11854" d="M23.86,1.436l-.2-.622A1.173,1.173,0,0,0,22.175.06L4.789,5.787a1.182,1.182,0,0,0-.751,1.49l.2.622a1.174,1.174,0,0,0,1.483.754l1.94-.639,2.033,6.2a1.181,1.181,0,0,0,1.45.758,47.389,47.389,0,0,1,5.616-1.33,1.763,1.763,0,0,0,.485-.158,47.26,47.26,0,0,1,5.312-2.254,1.181,1.181,0,0,0,.72-1.47L21.24,3.541l1.869-.616a1.181,1.181,0,0,0,.751-1.49Z" transform="translate(-3.98 0)" fill="#585966"/>
      <path id="Path_11855" data-name="Path 11855" d="M58.734,106.043a.51.51,0,0,1-.337.658q-.337.1-.674.2a1.181,1.181,0,0,1-1.45-.758l-2.033-6.2,2.25-.741Z" transform="translate(-50.557 -91.928)" fill="#6e6f80"/>
      <path id="Path_11856" data-name="Path 11856" d="M6.018,7.774c.086.254.138.427.183.564a.413.413,0,0,1-.263.522l-.213.07a1.174,1.174,0,0,1-1.483-.754l-.2-.622a1.182,1.182,0,0,1,.751-1.49S22.225.322,22.25.315a.414.414,0,0,1,.22.8L6.768,6.285a1.178,1.178,0,0,0-.751,1.49Z" transform="translate(-3.98 -0.278)" fill="#6e6f80"/>
      <g id="Group_17306" data-name="Group 17306" transform="translate(3.684 3.541)">
        <path id="Path_11857" data-name="Path 11857" d="M142.142,83.314a.588.588,0,0,1-.74-.376l-1.586-4.86a.293.293,0,0,1,.187-.37l.557-.183a.293.293,0,0,1,.37.188l1.587,4.861A.587.587,0,0,1,142.142,83.314Z" transform="translate(-133.53 -75.369)" fill="#42434d"/>
        <path id="Path_11858" data-name="Path 11858" d="M67.627,49.6,55.164,53.7a.586.586,0,0,1-.741-.374l-.183-.557L67.817,48.3l.183.558A.586.586,0,0,1,67.627,49.6Z" transform="translate(-54.241 -48.3)" fill="#42434d"/>
      </g>
    </g>
    <g id="svgexport-10_2_" data-name="svgexport-10 (2)" transform="translate(73.614 496.149) rotate(29)">
      <path id="Path_11830" data-name="Path 11830" d="M.6,5.306.053,3.65A1.025,1.025,0,0,1,.819,2.323l1.709-.352a1.025,1.025,0,0,0,.56-.323L4.247.344a1.024,1.024,0,0,1,1.532,0l1.159,1.3a1.024,1.024,0,0,0,.56.323l1.709.352A1.025,1.025,0,0,1,9.973,3.65l-.55,1.656a1.022,1.022,0,0,0,0,.646l.55,1.656a1.025,1.025,0,0,1-.766,1.327L7.5,9.287a1.026,1.026,0,0,0-.56.323l-1.159,1.3a1.025,1.025,0,0,1-1.532,0L3.088,9.61a1.027,1.027,0,0,0-.56-.323L.819,8.935A1.025,1.025,0,0,1,.053,7.608L.6,5.952A1.021,1.021,0,0,0,.6,5.306Zm0,0" transform="translate(7.422 3.209)" fill="#f6c273"/>
      <path id="Path_11831" data-name="Path 11831" d="M8.758,3.65a1.025,1.025,0,0,0-.766-1.327L6.283,1.972a1.024,1.024,0,0,1-.56-.323L4.564.344a1.025,1.025,0,0,0-1.532,0l-1.159,1.3a1.028,1.028,0,0,1-.56.323L0,2.242c4.273.712,5.824,3.149,8.383,6.522a1.024,1.024,0,0,0,.375-1.155l-.55-1.656a1.019,1.019,0,0,1,0-.646Zm0,0" transform="translate(8.637 3.209)" fill="#e6b469"/>
      <path id="Path_11832" data-name="Path 11832" d="M.186,1.64l-.17-.512A.317.317,0,0,1,.253.718L.782.61A.319.319,0,0,0,.955.51l.358-.4a.316.316,0,0,1,.473,0l.358.4a.32.32,0,0,0,.173.1l.529.108a.317.317,0,0,1,.237.41l-.17.512a.315.315,0,0,0,0,.2l.17.512a.317.317,0,0,1-.237.41l-.529.109a.32.32,0,0,0-.173.1l-.358.4a.316.316,0,0,1-.473,0l-.358-.4a.319.319,0,0,0-.173-.1L.253,2.762a.317.317,0,0,1-.237-.41l.17-.512A.316.316,0,0,0,.186,1.64Zm0,0" transform="translate(10.885 7.098)" fill="#fff"/>
      <path id="Path_11833" data-name="Path 11833" d="M.192.039,0,0Q.222.2.435.421A.316.316,0,0,0,.192.039Zm0,0" transform="translate(13.539 7.777)" fill="#eeeeed"/>
      <path id="Path_11837" data-name="Path 11837" d="M4.383,2.09a.7.7,0,0,1-.357-.1A6.318,6.318,0,0,0,.737,1.422.706.706,0,0,1,.674.012,7.587,7.587,0,0,1,4.741.775.706.706,0,0,1,4.383,2.09Zm0,0" transform="translate(19.547 7.92)" fill="#77c09f"/>
      <path id="Path_11838" data-name="Path 11838" d="M4.447,3.216a.7.7,0,0,1-.539-.249,4.153,4.153,0,0,0-3.2-1.555A.706.706,0,0,1,.706,0,5.5,5.5,0,0,1,4.985,2.054a.706.706,0,0,1-.538,1.162Zm0,0" transform="translate(3.701 0)" fill="#79ace2"/>
      <path id="Path_11839" data-name="Path 11839" d="M.706,5.04A.705.705,0,0,1,0,4.335,10.711,10.711,0,0,1,.944.391a.706.706,0,0,1,1.263.629,9.327,9.327,0,0,0-.8,3.314A.706.706,0,0,1,.706,5.04Zm0,0" transform="translate(6.329 14.758)" fill="#f8e47c"/>
      <path id="Path_11840" data-name="Path 11840" d="M.705,3.953A.706.706,0,0,1,.084,2.912a6.517,6.517,0,0,1,4.04-2.9A.706.706,0,0,1,4.408,1.4a5.094,5.094,0,0,0-3.08,2.184A.706.706,0,0,1,.705,3.953Zm0,0" transform="matrix(0.259, 0.966, -0.966, 0.259, 19.46, 13.972)" fill="#a2d5ec"/>
      <path id="Path_11846" data-name="Path 11846" d="M.706,3.127a.706.706,0,0,1-.5-1.2A7.91,7.91,0,0,1,3.742.007a.706.706,0,0,1,.194,1.4A6.706,6.706,0,0,0,1.21,2.915.7.7,0,0,1,.706,3.127Zm0,0" transform="translate(0 7.639)" fill="#f6c273"/>
    </g>
  </g>
</svg>
