<svg xmlns="http://www.w3.org/2000/svg" width="50.264" height="37.79" viewBox="0 0 50.264 37.79">
  <g id="خدمه_عاجلة" data-name="خدمه عاجلة" transform="translate(0 -63.529)">
    <g id="Group_17376" data-name="Group 17376" transform="translate(0 63.529)">
      <path id="Path_11951" data-name="Path 11951" d="M32.108,135.683h7.765a.736.736,0,1,0,0-1.473H32.108a.736.736,0,1,0,0,1.473Z" transform="translate(-28.292 -127.271)" fill="#fab300"/>
      <path id="Path_11952" data-name="Path 11952" d="M80.316,185.317H77.248a.736.736,0,1,0,0,1.473h3.067a.736.736,0,1,0,0-1.473Z" transform="translate(-69.001 -173.361)" fill="#fab300"/>
      <path id="Path_11953" data-name="Path 11953" d="M.736,223.8H8.248a.736.736,0,0,0,0-1.473H.736a.736.736,0,0,0,0,1.473Z" transform="translate(0 -206.738)" fill="#fab300"/>
      <path id="Path_11954" data-name="Path 11954" d="M40.61,363.525a.736.736,0,0,0-.736-.736H32.108a.736.736,0,0,0,0,1.473h7.765A.736.736,0,0,0,40.61,363.525Z" transform="translate(-28.292 -333.41)" fill="#fab300"/>
      <path id="Path_11955" data-name="Path 11955" d="M80.316,311.683H77.248a.736.736,0,1,0,0,1.473h3.067a.736.736,0,1,0,0-1.473Z" transform="translate(-69.001 -287.321)" fill="#fab300"/>
      <path id="Path_11956" data-name="Path 11956" d="M8.984,275.409a.736.736,0,0,0-.736-.736H.736a.736.736,0,0,0,0,1.473H8.248A.736.736,0,0,0,8.984,275.409Z" transform="translate(0 -253.945)" fill="#fab300"/>
      <path id="Path_11957" data-name="Path 11957" d="M312.765,141.978a.736.736,0,0,0,.736-.736v-1.124a.736.736,0,1,0-1.473,0v1.124A.736.736,0,0,0,312.765,141.978Z" transform="translate(-281.397 -131.935)" fill="#fab300"/>
      <path id="Path_11958" data-name="Path 11958" d="M383.143,171.558a.737.737,0,0,0-1.041,0l-.795.795a.736.736,0,0,0,1.041,1.041l.795-.795A.737.737,0,0,0,383.143,171.558Z" transform="translate(-343.679 -160.758)" fill="#fab300"/>
      <path id="Path_11959" data-name="Path 11959" d="M410.435,248.5a.736.736,0,0,0,0,1.473h1.124a.736.736,0,1,0,0-1.473Z" transform="translate(-369.478 -230.341)" fill="#fab300"/>
      <path id="Path_11960" data-name="Path 11960" d="M382.348,317.779a.736.736,0,0,0-1.041,1.041l.795.795a.736.736,0,0,0,1.041-1.041Z" transform="translate(-343.679 -292.624)" fill="#fab300"/>
      <path id="Path_11961" data-name="Path 11961" d="M312.029,346.906v1.124a.736.736,0,1,0,1.473,0v-1.124a.736.736,0,1,0-1.473,0Z" transform="translate(-281.397 -318.423)" fill="#fab300"/>
      <path id="Path_11962" data-name="Path 11962" d="M235.881,317.779l-.795.795a.736.736,0,0,0,1.041,1.041l.795-.795a.736.736,0,0,0-1.041-1.041Z" transform="translate(-211.813 -292.624)" fill="#fab300"/>
      <path id="Path_11963" data-name="Path 11963" d="M203.647,248.5a.736.736,0,1,0,0,1.473h1.124a.736.736,0,0,0,0-1.473Z" transform="translate(-182.991 -230.341)" fill="#fab300"/>
      <path id="Path_11964" data-name="Path 11964" d="M236.923,172.352l-.795-.795a.736.736,0,1,0-1.041,1.041l.795.795a.736.736,0,0,0,1.041-1.041Z" transform="translate(-211.814 -160.758)" fill="#fab300"/>
      <path id="Path_11965" data-name="Path 11965" d="M316.725,192.255a.736.736,0,0,0-.736-.736H313.5v-5.467a.736.736,0,1,0-1.473,0v6.2a.736.736,0,0,0,.736.736h3.223A.736.736,0,0,0,316.725,192.255Z" transform="translate(-281.397 -173.36)" fill="#fab300"/>
      <path id="Path_11966" data-name="Path 11966" d="M198.637,121.026a.736.736,0,0,0,.69-.779,14.669,14.669,0,1,0-.135,3.1.736.736,0,0,0-1.456-.219,13.217,13.217,0,1,1,.122-2.79A.737.737,0,0,0,198.637,121.026Z" transform="translate(-153.307 -102.253)" fill="#fab300"/>
      <path id="Path_11967" data-name="Path 11967" d="M124.871,63.529a18.888,18.888,0,0,0-7.463,1.542H104.417a.736.736,0,1,0,0,1.473h10.221a18.875,18.875,0,0,0-3.776,3.2.736.736,0,0,0,1.091.988,17.387,17.387,0,1,1-1.726,2.249.736.736,0,0,0-1.237-.8A18.89,18.89,0,0,0,114.643,98.3H104.417a.736.736,0,1,0,0,1.473H117.4a18.895,18.895,0,1,0,7.473-36.248Z" transform="translate(-93.502 -63.529)" fill="#fab300"/>
    </g>
  </g>
</svg>
