<svg xmlns="http://www.w3.org/2000/svg" width="43.13" height="50.91" viewBox="0 0 43.13 50.91">
  <g id="ديجي" transform="translate(0 0)">
    <path id="Path_11715" data-name="Path 11715" d="M93.012,134.244,87.5,125.216a2.587,2.587,0,0,0-2.209-1.239H82.346V119.7h-4.4v4.276H74.472a2.588,2.588,0,0,0-1.708.644l-5.355,4.7.585-4.008.979-6.716.44-.665a1.813,1.813,0,0,0-.086-2.12l-1.477-1.88.13-2.8a1.033,1.033,0,0,0-2.046-.244l-.652,3.365a4.568,4.568,0,0,0,.3,2.7l.452,1.033L63.779,133.44a1.657,1.657,0,0,0,2.732,1.483l4.347-3.82,2.708-2.379.632,16.209H86.1l.552-14.174L89.73,135.8a.993.993,0,0,1,.063.915l-3.327,7.629,2.546,1.111,4.121-9.45a1.914,1.914,0,0,0-.121-1.765Zm0,0" transform="translate(-57.421 -99.112)" fill="#ffc999"/>
    <path id="Path_11716" data-name="Path 11716" d="M305.35,405.153a2.42,2.42,0,0,0-2.1-2.134l-1.269,2.91h3.031Zm0,0" transform="translate(-271.953 -362.946)" fill="#e89c5d"/>
    <path id="Path_11717" data-name="Path 11717" d="M206.461,210.557a7.085,7.085,0,0,0,4.4.325v-3.82h-4.4Zm0,0" transform="translate(-185.932 -186.474)" fill="#e89c5d"/>
    <path id="Path_11718" data-name="Path 11718" d="M146.132,13.477a.746.746,0,0,1-.746-.747V10.139a8.646,8.646,0,0,0-17.292,0V12.73a.747.747,0,0,1-1.493,0V10.139a10.139,10.139,0,0,1,20.278,0V12.73a.747.747,0,0,1-.747.747Zm0,0" transform="translate(-114.013)" fill="#333356"/>
    <path id="Path_11719" data-name="Path 11719" d="M116.092,106.758h-2.1a3.007,3.007,0,1,0,0,6.015h2.1a.5.5,0,0,0,.5-.5v-5.02A.5.5,0,0,0,116.092,106.758Zm0,0" transform="translate(-99.949 -96.143)" fill="#fab300"/>
    <path id="Path_11720" data-name="Path 11720" d="M292.371,106.758h-2.1a.5.5,0,0,0-.5.5v5.02a.5.5,0,0,0,.5.5h2.1a3.007,3.007,0,0,0,0-6.015Zm0,0" transform="translate(-260.96 -96.143)" fill="#fab300"/>
    <path id="Path_11721" data-name="Path 11721" d="M157.355,46.753V52.2a7.081,7.081,0,1,0,14.161,0V46.753a6.1,6.1,0,0,0-6.1-6.1h-1.969A6.1,6.1,0,0,0,157.355,46.753Zm0,0" transform="translate(-141.708 -36.614)" fill="#ffc999"/>
    <path id="Path_11722" data-name="Path 11722" d="M203.957,168.2h-1.5a2.3,2.3,0,0,1-1.43-.432,1.812,1.812,0,0,1-.613-.844,1.566,1.566,0,0,1-.083-.37c0-.021,0-.042,0-.062v-.124a.746.746,0,1,1,1.491,0v.055l0,.009a.317.317,0,0,0,.109.15.888.888,0,0,0,.526.126h1.5a.746.746,0,1,1,0,1.492Zm-2.144-1.77" transform="translate(-180.405 -149.157)" fill="#4a4a68"/>
    <path id="Path_11723" data-name="Path 11723" d="M219.691,40.656h-1.969l-.1,0a6.1,6.1,0,0,1,5.992,6.093V52.2a7.082,7.082,0,0,1-5.992,7,7.085,7.085,0,0,0,8.169-7V46.752a6.1,6.1,0,0,0-6.1-6.1Zm0,0" transform="translate(-195.979 -36.614)" fill="#e89c5d"/>
    <path id="Path_11724" data-name="Path 11724" d="M98.07,292.155l-.256,1.739a.635.635,0,0,0,.537.72.619.619,0,0,0,.092.007.636.636,0,0,0,.628-.543l.469-3.213Zm0,0" transform="translate(-88.082 -261.942)" fill="#e89c5d"/>
    <path id="Path_11725" data-name="Path 11725" d="M174.121,250.626a2.588,2.588,0,0,0-1.6-.556h-1.786a3.355,3.355,0,0,1-6.709,0H161.7a2.585,2.585,0,0,0-1.08.236l.175,4.511h0l.632,16.209,5.543,1.094,6.355-1.094.552-14.174Zm0,0" transform="translate(-144.65 -225.205)" fill="#fab300"/>
    <path id="Path_11726" data-name="Path 11726" d="M267.736,250.07h-.6l-.235,6.254-.552,14.7h2.192l.552-14.174.242-6.226a2.588,2.588,0,0,0-1.6-.556Zm0,0" transform="translate(-239.868 -225.204)" fill="#fab300"/>
    <path id="Path_11727" data-name="Path 11727" d="M91.012,431.76v2.346l1.295.8,1.524-.8V431.76a.6.6,0,0,0-.6-.6H91.616a.6.6,0,0,0-.6.6Zm0,0" transform="translate(-81.962 -388.285)" fill="#40c6c2"/>
    <path id="Path_11728" data-name="Path 11728" d="M150.66,431.76v2.346l1.4.8,1.421-.8V431.76a.6.6,0,0,0-.6-.6h-1.611A.6.6,0,0,0,150.66,431.76Zm0,0" transform="translate(-135.679 -388.285)" fill="#e8626c"/>
    <path id="Path_11729" data-name="Path 11729" d="M274.191,408.629h-1.06a1.942,1.942,0,0,0-1.942,1.942v.41l2.455.7,2.491-.7v-.41A1.943,1.943,0,0,0,274.191,408.629Zm0,0" transform="translate(-244.222 -367.998)" fill="#ffc999"/>
    <path id="Path_11730" data-name="Path 11730" d="M213.3,317.621a.747.747,0,0,1-.691-1.029l.681-1.671h-.6a1.074,1.074,0,0,1-.994-1.479l.917-2.249a.746.746,0,1,1,1.382.564l-.681,1.671h.6a1.073,1.073,0,0,1,.994,1.479l-.917,2.249A.747.747,0,0,1,213.3,317.621Zm0,0" transform="translate(-190.579 -279.832)" fill="#a1a0a0"/>
    <path id="Path_11731" data-name="Path 11731" d="M219.184,433.7a1.435,1.435,0,0,1,1.45-1.419h11.033a1.419,1.419,0,1,1,0,2.838l-5.363.994-5.67-.994A1.435,1.435,0,0,1,219.184,433.7Zm0,0" transform="translate(-197.39 -389.302)" fill="#ededed"/>
    <path id="Path_11732" data-name="Path 11732" d="M50.515,462.345v3.571H83.6v-3.571a1.517,1.517,0,0,0-1.517-1.517H52.032a1.517,1.517,0,0,0-1.517,1.517Zm0,0" transform="translate(-45.492 -415.007)" fill="#4a4a68"/>
    <path id="Path_11733" data-name="Path 11733" d="M343.152,460.828H340.41a1.517,1.517,0,0,1,1.517,1.517v3.571h2.742v-3.571A1.517,1.517,0,0,0,343.152,460.828Zm0,0" transform="translate(-306.562 -415.006)" fill="#333356"/>
    <path id="Path_11734" data-name="Path 11734" d="M319.131,432.285h-2.826a1.419,1.419,0,1,1,0,2.838h2.826a1.419,1.419,0,1,0,0-2.838Zm0,0" transform="translate(-284.854 -389.301)" fill="#c9c9c9"/>
    <path id="Path_11735" data-name="Path 11735" d="M161.035,97.867h-2.957a.513.513,0,0,0-.437.253,1.667,1.667,0,0,1-2.859,0,.513.513,0,0,0-.437-.253h-2.978a3.114,3.114,0,0,0-2.991,2.167,3.169,3.169,0,0,0,5.6,2.824,2.645,2.645,0,0,1,2.169-1.092h.143a2.691,2.691,0,0,1,2.186,1.115,3.164,3.164,0,1,0,2.567-5.014Zm0,0" transform="translate(-133.484 -88.136)" fill="#4a4a68"/>
    <path id="Path_11736" data-name="Path 11736" d="M258.275,97.867H256.2a3.164,3.164,0,0,1,1.036,6.155,3.165,3.165,0,1,0,1.041-6.155Zm0,0" transform="translate(-230.724 -88.136)" fill="#333356"/>
    <path id="Path_11737" data-name="Path 11737" d="M85.966,480.4H84.637a.747.747,0,0,1,0-1.493h1.329a.747.747,0,0,1,0,1.493Zm0,0" transform="translate(-75.549 -431.287)" fill="#ededed"/>
    <path id="Path_11738" data-name="Path 11738" d="M134.181,480.4h-1.329a.747.747,0,0,1,0-1.493h1.329a.747.747,0,0,1,0,1.493Zm0,0" transform="translate(-118.97 -431.287)" fill="#ededed"/>
    <path id="Path_11739" data-name="Path 11739" d="M282.485,476.9a.747.747,0,0,1-.747-.747v-.868a.747.747,0,1,1,1.493,0v.868A.746.746,0,0,1,282.485,476.9Zm0,0" transform="translate(-253.724 -427.354)" fill="#1f1f42"/>
    <path id="Path_11740" data-name="Path 11740" d="M319.07,476.9a.746.746,0,0,1-.746-.747v-.868a.746.746,0,1,1,1.493,0v.868A.746.746,0,0,1,319.07,476.9Zm0,0" transform="translate(-286.672 -427.354)" fill="#1f1f42"/>
    <g id="Group_17256" data-name="Group 17256" transform="translate(0 14.224)">
      <path id="Path_11741" data-name="Path 11741" d="M338.831,143.315a1.107,1.107,0,0,0-.888-.254l-5.361.822a1.1,1.1,0,0,0-.938,1.093V148.2a2.18,2.18,0,1,0,1.493,2.069v-4.962l4.586-.7v2.665a2.18,2.18,0,1,0,1.493,2.068v-5.185A1.106,1.106,0,0,0,338.831,143.315Zm0,0" transform="translate(-296.086 -143.048)" fill="#fab300"/>
      <path id="Path_11742" data-name="Path 11742" d="M6.288,383.347l-1.161-.8a1.44,1.44,0,0,0-2.259,1.184v1.9A2.179,2.179,0,1,0,4.36,387.7v-3.87l1.078.747a.746.746,0,0,0,.85-1.227Zm0,0" transform="translate(0 -358.497)" fill="#7a7979"/>
    </g>
  </g>
</svg>
