<svg xmlns="http://www.w3.org/2000/svg" width="18.759" height="13.753" viewBox="0 0 18.759 13.753">
  <g id="رجوع" transform="translate(219.491 246.201) rotate(180)">
    <path id="Path_2194" data-name="Path 2194" d="M203.7,238.468h3.335q5.709,0,11.419,0a1.587,1.587,0,0,1,.42.041.844.844,0,0,1,.609.89.859.859,0,0,1-.789.769c-.15.01-.3,0-.452,0H203.717c.075.085.12.142.171.192,1.45,1.423,2.906,2.841,4.346,4.274a1.323,1.323,0,0,1,.342.6.741.741,0,0,1-.391.832.815.815,0,0,1-.927-.037,1.3,1.3,0,0,1-.181-.156q-3.037-2.967-6.072-5.935a.855.855,0,0,1,0-1.255q3.045-2.977,6.1-5.945a1.173,1.173,0,0,1,.6-.288.741.741,0,0,1,.8.451.793.793,0,0,1-.119.942c-.262.288-.551.552-.83.826l-3.631,3.559C203.864,238.3,203.806,238.36,203.7,238.468Z" transform="translate(0 0)" fill="#101010"/>
  </g>
</svg>
