<svg xmlns="http://www.w3.org/2000/svg" width="32.264" height="50.91" viewBox="0 0 32.264 50.91">
  <g id="زفات" transform="translate(-93.762 0.001)">
    <path id="Path_11777" data-name="Path 11777" d="M137.363,23.562l1.752-.968c.355-.474.2-.743.261-2.153a3.794,3.794,0,0,1-.957-1.088c-.242-2.767.794-2.5,2.684-5.171a1.172,1.172,0,0,1,1.618-.289,4.772,4.772,0,0,1,1.818,2.261,7.15,7.15,0,0,0,.116-3.414c-.616-2.182-4.84-3.513-7.515-.916h0a5.489,5.489,0,0,0-1.5,4.084A21.425,21.425,0,0,0,137.363,23.562Z" transform="translate(-37.711 -9.362)" fill="#cc9d72"/>
    <path id="Path_11778" data-name="Path 11778" d="M138.419,19.323a3.339,3.339,0,0,1,1.1-3.259,6.062,6.062,0,0,1,1.467-5.014h0a5.083,5.083,0,0,1,.722-.583,5.07,5.07,0,0,0-4.564,1.326h0a5.489,5.489,0,0,0-1.5,4.084,21.423,21.423,0,0,0,1.726,7.654l1.752-.968c.355-.474.2-.743.261-2.153A3.8,3.8,0,0,1,138.419,19.323Z" transform="translate(-37.712 -9.332)" fill="#c19067"/>
    <path id="Path_11779" data-name="Path 11779" d="M210.127,455.526c-1.48,1.62-2.059.669-4.286,1.405.294,1.72,2.049,2.9,3.479,3.611a.666.666,0,0,0,.961-.628l-.1-2.049Z" transform="translate(-100.935 -410.232)" fill="#ed694a"/>
    <path id="Path_11780" data-name="Path 11780" d="M208.11,466.047a7.653,7.653,0,0,0-2.27.359c.294,1.72,2.049,2.9,3.479,3.611a.666.666,0,0,0,.961-.628l-.074-1.511A6.671,6.671,0,0,1,208.11,466.047Z" transform="translate(-100.934 -419.707)" fill="#db4e33"/>
    <path id="Path_11781" data-name="Path 11781" d="M116.176,10.621a18.214,18.214,0,0,0-3.11-7.066c-1.023-1.807.35-3.505-2.024-3.505-1.987,0-1.9,1.518-1.6,2.512a11.155,11.155,0,0,0,1.568,2.692c1.064,1.3,1.552,3.957,1.724,5.145a.6.6,0,0,1-.5.676c-2.169.326-4.881.954-6.036,1.231a.566.566,0,0,1-.686-.432l-.145-1.081a2.83,2.83,0,0,1-3.919.013l.1,1.408a1.231,1.231,0,0,1-.71,1.239,21.021,21.021,0,0,0-5.726,3.757s-1.343.865-1.343,2.024c0,1.064,1.442,3.8,3.515,5.313l.051.061a.758.758,0,0,1-.273,1.181l-.789.323a.8.8,0,0,0,.138,1.54l.653.124a2.654,2.654,0,0,0,2.7-1.135h0a2.636,2.636,0,0,0,.368-1.768,4.12,4.12,0,0,0-.55-1.87,23.45,23.45,0,0,0-1.934-2.9.472.472,0,0,1,.159-.725l3.119-1.515a.85.85,0,0,1,1.154.435l.58,1.378.1-.083a5.592,5.592,0,0,0,1.215-2.485c0-.962,2.864-2.618,4.806-1.618-.038-.1-.077-.2-.119-.3C108.661,15.182,116.893,14.6,116.176,10.621Z" transform="translate(-0.001 -0.045)" fill="#fab300"/>
    <g id="Group_17291" data-name="Group 17291" transform="translate(93.762 -0.001)">
      <path id="Path_11782" data-name="Path 11782" d="M251.489,5.208c1.064,1.3,1.552,3.957,1.724,5.145a.6.6,0,0,1-.323.62c.51-.095,1.016-.181,1.495-.253a.6.6,0,0,0,.5-.676c-.172-1.188-.66-3.849-1.724-5.145a11.157,11.157,0,0,1-1.568-2.692,1.96,1.96,0,0,1,.351-2.179c-1.74-.2-2.572.7-2.025,2.489A11.162,11.162,0,0,0,251.489,5.208Z" transform="translate(-234.243 0.001)" fill="#fab300"/>
      <path id="Path_11783" data-name="Path 11783" d="M103.343,110.244l-.083-1.255a3.542,3.542,0,0,1-1.815-.769l.1,1.408a1.231,1.231,0,0,1-.71,1.239,21.021,21.021,0,0,0-5.726,3.757s-1.343.865-1.343,2.024c0,1.064,1.442,3.8,3.515,5.313l.051.061a1.894,1.894,0,0,0-.337-1.08,7.43,7.43,0,0,1-1.487-3.369,3.064,3.064,0,0,1,1.353-2.113,21.112,21.112,0,0,1,5.77-3.922A1.294,1.294,0,0,0,103.343,110.244Z" transform="translate(-93.762 -97.459)" fill="#fab300"/>
    </g>
    <path id="Path_11784" data-name="Path 11784" d="M356.574,464.058a4.92,4.92,0,0,0,.683,3.3c1.072,1.409,3.156,1.521,4.766,1.457a.666.666,0,0,0,.543-1.011l-1.068-1.751" transform="translate(-236.638 -417.915)" fill="#ed694a"/>
    <path id="Path_11785" data-name="Path 11785" d="M359.246,465.139l-2.672-1.08a4.92,4.92,0,0,0,.683,3.3,4.766,4.766,0,0,0,3.821,1.467A3.624,3.624,0,0,1,359.246,465.139Z" transform="translate(-236.638 -417.916)" fill="#db4e33"/>
    <path id="Path_11786" data-name="Path 11786" d="M317.507,378.465l-4.888-8.716c-1.139,1.2-2.159-.411-3.241,2.427l4.734,6.951c1.171,1.656,2.9,1.991,4.924,1.991Z" transform="translate(-194.176 -332.984)" fill="#fab300"/>
    <path id="Path_11787" data-name="Path 11787" d="M310.85,376.05c-.489.13-.974.494-1.471,1.8l4.734,6.951a4.362,4.362,0,0,0,2.668,1.77Z" transform="translate(-194.177 -338.658)" fill="#fab300"/>
    <g id="Group_17292" data-name="Group 17292" transform="translate(100.238 11.928)">
      <path id="Path_11788" data-name="Path 11788" d="M163.585,130.4a9.585,9.585,0,0,0-3.438-3.249c-.191.638-.673.76-1.257,1.047a8.96,8.96,0,0,1,3.37,2.98.765.765,0,0,0,.37.332A1.907,1.907,0,0,1,163.585,130.4Z" transform="translate(-158.89 -126.438)" fill="#db4e33"/>
      <path id="Path_11789" data-name="Path 11789" d="M214.03,120.026c-.467.106-.867.2-1.164.272a.566.566,0,0,1-.654-.332,16.763,16.763,0,0,1,1.577,3.215,3.083,3.083,0,0,1,1.654.293c0-.005,0-.01,0-.016-.035-.1-.072-.19-.111-.283h0A12.35,12.35,0,0,0,214.03,120.026Z" transform="translate(-206.91 -119.966)" fill="#db4e33"/>
    </g>
    <path id="Path_11790" data-name="Path 11790" d="M141.266,157.823c-1.723,0-2.583,1.7-2.983,3.387a.449.449,0,0,1-.619.3c-.06-.055-2.937-.9-5.457-5.791a3.184,3.184,0,0,1-.308-1.988,8.654,8.654,0,0,0-.3-5.273c-1.939-1.217-4.995.518-4.995,1.511a5.592,5.592,0,0,1-1.215,2.485c.845,2.134,1.213,2.553,1.246,3.5.09,2.655.022,13.248-6.345,18.911a3.207,3.207,0,0,0-.18,4.583,4.783,4.783,0,0,0,3.331,1.763c3.141,0,3.778-1.435,6.551-1.435s2.994-3.975,5.754-3.975,1.767-5.079,4.527-5.079,2.1-6.072,5.189-6.956S144.137,157.823,141.266,157.823Z" transform="translate(-22.939 -133.322)" fill="#ed694a"/>
    <path id="Path_11791" data-name="Path 11791" d="M122.858,179.683a3.207,3.207,0,0,1,.18-4.583c6.367-5.662,6.435-16.255,6.345-18.911a5.491,5.491,0,0,0-.684-2.155,2.61,2.61,0,0,1,.126-2.353,3.3,3.3,0,0,0,.527-1.48c0-.57,1.006-1.383,2.23-1.744-1.94-1.2-4.978.53-4.978,1.521a5.592,5.592,0,0,1-1.215,2.485c.845,2.134,1.214,2.553,1.246,3.5.09,2.655.022,13.248-6.345,18.911a3.207,3.207,0,0,0-.18,4.583,4.575,4.575,0,0,0,4.66,1.666A6.194,6.194,0,0,1,122.858,179.683Z" transform="translate(-22.94 -133.329)" fill="#db4e33"/>
    <path id="Path_11792" data-name="Path 11792" d="M165.744,41.657a1.172,1.172,0,0,0-1.618.289,17.638,17.638,0,0,1-1.908,2.262,3.714,3.714,0,0,0-.878,3.012h0c.834,1.495,3.224,2.7,4.825,1.1a6.254,6.254,0,0,0,1.5-4.2A4.322,4.322,0,0,0,165.744,41.657Z" transform="translate(-60.838 -37.331)" fill="#fee9b5"/>
    <path id="Path_11793" data-name="Path 11793" d="M163.009,67.152a3.456,3.456,0,0,1-.358-2.649,3.721,3.721,0,0,0-1.323,3.476h0c.828,1.484,3.19,2.683,4.791,1.132A5.614,5.614,0,0,1,163.009,67.152Z" transform="translate(-60.826 -58.09)" fill="#fab300"/>
  </g>
</svg>
