<svg xmlns="http://www.w3.org/2000/svg" width="27.86" height="30.715" viewBox="0 0 27.86 30.715">
  <g id="طالب_خدمة" data-name="طالب خدمة" transform="translate(0 0)">
    <g id="Group_17331" data-name="Group 17331" transform="translate(0.45 0.45)">
      <path id="Path_11894" data-name="Path 11894" d="M7.5,150.273H34.46v21.25H7.5Zm0,0" transform="translate(-7.5 -141.708)" fill="#e5ebf5"/>
      <path id="Path_11895" data-name="Path 11895" d="M96.65,13.211H95.023l-.468-.468V7.969l.468-.468H96.65l.468.468v4.773l-.468.468Zm0,0" transform="translate(-89.333 -7.5)" fill="#e5ebf5"/>
      <path id="Path_11896" data-name="Path 11896" d="M327.6,13.211h1.626l.468-.468V7.969l-.468-.468H327.6l-.468.468v4.773l.468.468Zm0,0" transform="translate(-307.958 -7.5)" fill="#e5ebf5"/>
    </g>
    <path id="Path_11897" data-name="Path 11897" d="M29.238,55.09v2.387l-.468.468H27.143l-.468-.468V55.09H15.285v2.387l-.468.468H13.191l-.468-.468V55.09H7.5V60.8H34.46V55.09Zm0,0" transform="translate(-7.05 -51.785)" fill="#fee9b5"/>
    <path id="Path_11898" data-name="Path 11898" d="M110.8,211.672l-2.98-2.98-7.473,7.473-3.119-3.119-2.98,2.98,6.1,6.1Zm0,0" transform="translate(-88.593 -196.171)" fill="#fab300"/>
    <path id="Path_11899" data-name="Path 11899" d="M7.5,150.273H9.3v21.25H7.5Zm0,0" transform="translate(-7.05 -141.258)" fill="#cad8ea"/>
    <path id="Path_11900" data-name="Path 11900" d="M96.355,12.742V7.968l.382-.382L96.65,7.5H95.023l-.468.468v4.773l.468.468H96.65l.087-.087Zm0,0" transform="translate(-88.883 -7.05)" fill="#cad8ea"/>
    <path id="Path_11901" data-name="Path 11901" d="M328.933,12.742V7.968l.382-.382-.087-.087H327.6l-.468.468v4.773l.468.468h1.626l.087-.087Zm0,0" transform="translate(-307.508 -7.05)" fill="#cad8ea"/>
    <path id="Path_11905" data-name="Path 11905" d="M96.046,284.249l2.08-2.08-.9-.9-2.98,2.98,6.1,6.1.9-.9Zm0,0" transform="translate(-88.592 -264.395)" fill="#6ad34d"/>
    <path id="Path_11906" data-name="Path 11906" d="M214.6,96.084h-.9v-.9h.9Zm-1.5,0h-.9v-.9h.9Zm0,0" transform="translate(-199.473 -89.473)" fill="#fff"/>
    <path id="Path_11907" data-name="Path 11907" d="M26.96,189.874H.9v-19.6H0v20.5H27.86v-20.5h-.9Zm0,0" transform="translate(0 -160.058)" fill="#fab300"/>
    <path id="Path_11908" data-name="Path 11908" d="M89.786,6.61l.732-.732V.732L89.786,0h-2l-.732.732V5.878l.732.732ZM87.954,1.105l.2-.2h1.253l.2.2v4.4l-.2.2H88.159l-.2-.2Zm0,0" transform="translate(-81.832)"/>
    <path id="Path_11909" data-name="Path 11909" d="M322.363,6.61l.732-.732V.732L322.363,0h-2l-.732.732V5.878l.732.732Zm-1.831-5.505.2-.2h1.253l.2.2v4.4l-.2.2h-1.253l-.2-.2Zm0,0" transform="translate(-300.458)"/>
    <path id="Path_11910" data-name="Path 11910" d="M23.387,47.59v.9H26.96V53.3H.9V48.49H4.472v-.9H0V54.2H27.86V47.59Zm0,0" transform="translate(0 -44.734)"/>
    <path id="Path_11911" data-name="Path 11911" d="M157.277,47.59h8.99v.9h-8.99Zm0,0" transform="translate(-147.842 -44.734)"/>
    <path id="Path_11912" data-name="Path 11912" d="M97.846,198.086l-7.473,7.473-3.119-3.119-3.617,3.617,6.736,6.736,11.09-11.089Zm-12.936,7.97,2.344-2.344,3.119,3.119,7.473-7.473,2.344,2.344-9.817,9.817Zm0,0" transform="translate(-78.62 -186.202)"/>
  </g>
</svg>
