<svg xmlns="http://www.w3.org/2000/svg" width="55.092" height="50.91" viewBox="0 0 55.092 50.91">
  <g id="فرق_شعبيه" data-name="فرق شعبيه" transform="translate(-36.618 -506)">
    <g id="svgexport-7" transform="translate(36.618 506)">
      <path id="Path_11743" data-name="Path 11743" d="M111.653,45.287a5.944,5.944,0,0,0-4.01-5.616l-4.721-1.624a5.939,5.939,0,0,1-4.009-5.613,10.87,10.87,0,0,0,6.692-10.027v-.343a2.745,2.745,0,0,0,2.747-2.741V15.877c-.011-.005-.032.092,1.173-3.557a6.638,6.638,0,0,0-1.744-6.9,19,19,0,0,0-26.077,0,6.637,6.637,0,0,0-1.744,6.9l1.175,3.56v3.473a2.706,2.706,0,0,0,2.74,2.7v.342a10.865,10.865,0,0,0,6.688,10.039,5.942,5.942,0,0,1-4.009,5.616l-4.721,1.624a5.948,5.948,0,0,0-4.01,5.616v4.962a.877.877,0,0,0,.876.879h32.077a.876.876,0,0,0,.876-.879Z" transform="translate(-77.824 -0.217)" fill="#ffd9ad"/>
      <path id="Path_11744" data-name="Path 11744" d="M201.017,295.487a10.941,10.941,0,0,1-7.391,0,.872.872,0,0,1-.56-.964,5.9,5.9,0,0,0,.082-.98,10.886,10.886,0,0,0,8.349,0,5.9,5.9,0,0,0,.082.98A.874.874,0,0,1,201.017,295.487Z" transform="translate(-180.409 -261.326)" fill="#ffca8c"/>
      <path id="Path_11745" data-name="Path 11745" d="M143.484,162.04a.878.878,0,0,1-.346,1.7,10.866,10.866,0,0,1-10.168-10.851V146.83a16.069,16.069,0,0,0,2.352.023.88.88,0,0,1,.941.876v4.065A10.866,10.866,0,0,0,143.484,162.04Z" transform="translate(-126.918 -130.716)" fill="#ffe5c4"/>
      <path id="Path_11746" data-name="Path 11746" d="M205.117,236.588a.878.878,0,1,1,1.242-1.241,2.082,2.082,0,0,0,2.948,0,.878.878,0,1,1,1.242,1.241,3.837,3.837,0,0,1-5.432,0Z" transform="translate(-190.919 -209.29)" fill="#ffca8c"/>
      <g id="Group_17257" data-name="Group 17257" transform="translate(3.312 15.659)">
        <path id="Path_11747" data-name="Path 11747" d="M249.828,172.292a.878.878,0,0,1-.878-.878v-1.536a.878.878,0,1,1,1.756,0v1.536A.878.878,0,0,1,249.828,172.292Z" transform="translate(-233.482 -166.113)" fill="#585966"/>
        <path id="Path_11748" data-name="Path 11748" d="M199.828,172.292a.878.878,0,0,1-.878-.878v-1.536a.878.878,0,1,1,1.756,0v1.536A.878.878,0,0,1,199.828,172.292Z" transform="translate(-188.969 -166.113)" fill="#585966"/>
        <path id="Path_11749" data-name="Path 11749" d="M333.717,146.135a2.744,2.744,0,0,1-2.747,2.741v-5.732a16.815,16.815,0,0,0,2.745-.454C333.726,142.7,333.718,142.6,333.717,146.135Z" transform="translate(-306.5 -142.69)" fill="#585966"/>
        <path id="Path_11750" data-name="Path 11750" d="M110.74,143.18c0,6.169.012,5.719-.022,5.719A2.706,2.706,0,0,1,108,146.2V142.73A17.36,17.36,0,0,0,110.74,143.18Z" transform="translate(-108 -142.726)" fill="#585966"/>
      </g>
      <path id="Path_11751" data-name="Path 11751" d="M110.776,344.517H78.7a.877.877,0,0,1-.876-.879v-4.962a5.943,5.943,0,0,1,3.087-5.206c.581-.321.446-.245,5.644-2.034a5.93,5.93,0,0,0,2.477-1.636V331a25.862,25.862,0,0,0,5.707,3.55,25.856,25.856,0,0,0,6.377-4.119,5.918,5.918,0,0,0,1.806,1l4.721,1.624a5.944,5.944,0,0,1,4.01,5.616v4.962A.876.876,0,0,1,110.776,344.517Z" transform="translate(-77.823 -293.607)" fill="#7a7979"/>
      <path id="Path_11752" data-name="Path 11752" d="M252.455,337.834a25.73,25.73,0,0,1-4.264,2.562,1,1,0,0,1-.938-1.761,26.419,26.419,0,0,0,4.25-3.035,5.83,5.83,0,0,0,.853.576A.988.988,0,0,1,252.455,337.834Z" transform="translate(-228.21 -298.77)" fill="#7a7979"/>
      <path id="Path_11753" data-name="Path 11753" d="M89.371,331.279a.6.6,0,0,1-.173,1.032l-4.731,1.628a5.945,5.945,0,0,0-4.009,5.616v4.085a.879.879,0,0,1-.879.877H78.7a.876.876,0,0,1-.876-.879v-4.962a5.943,5.943,0,0,1,3.087-5.206c.757-.419,1.039-.436,5.644-2.034a5.96,5.96,0,0,0,2.477-1.636V331Q89.2,331.144,89.371,331.279Z" transform="translate(-77.824 -293.607)" fill="#7a7979"/>
      <path id="Path_11754" data-name="Path 11754" d="M225.706,372.12v9.242a.439.439,0,0,1-.439.439h-.878a.439.439,0,0,1-.439-.439V372.12a.439.439,0,0,1,.623-.4l.255.118.255-.118A.438.438,0,0,1,225.706,372.12Z" transform="translate(-207.913 -330.891)" fill="#cfcfcf"/>
      <path id="Path_11755" data-name="Path 11755" d="M288.572,423.756h-2.744a.878.878,0,1,1,0-1.756h2.744a.878.878,0,1,1,0,1.756Z" transform="translate(-262.219 -375.688)" fill="#cfcfcf"/>
      <path id="Path_11756" data-name="Path 11756" d="M114.071,343.639a.878.878,0,0,1-.878.878h-6.365a.878.878,0,0,1-.878-.878V333.47c.581-.321.446-.245,5.644-2.034a5.93,5.93,0,0,0,2.477-1.636Z" transform="translate(-102.863 -293.607)" fill="#fab300"/>
      <path id="Path_11757" data-name="Path 11757" d="M109.242,356.2v10.159a.878.878,0,0,1-.878.878h-1.536a.878.878,0,0,1-.878-.878V356.192a11.971,11.971,0,0,1,2.131-.821A.878.878,0,0,1,109.242,356.2Z" transform="translate(-102.863 -316.329)" fill="#fab300"/>
      <path id="Path_11758" data-name="Path 11758" d="M122.4,5.456a19.015,19.015,0,0,0-26.077,0,6.637,6.637,0,0,0-1.744,6.9l1.175,3.56a15.909,15.909,0,0,0,13.607-2.706,15.9,15.9,0,0,0,13.606,2.706l1.176-3.56a6.639,6.639,0,0,0-1.744-6.9Z" transform="translate(-92.442 -0.251)" fill="#fab300"/>
      <path id="Path_11759" data-name="Path 11759" d="M243.53,17.971A21.324,21.324,0,0,1,236.2,29.277,16.785,16.785,0,0,1,231.99,27a23.119,23.119,0,0,0,7.872-11.226A18.7,18.7,0,0,1,243.53,17.971Z" transform="translate(-215.071 -14.045)" fill="#7a7979"/>
      <path id="Path_11760" data-name="Path 11760" d="M113.522.49a.878.878,0,0,1-.182,1.733A18.986,18.986,0,0,0,100.711,7.4a6.7,6.7,0,0,0-1.55,7.534.879.879,0,0,1-.92,1.157,17.492,17.492,0,0,1-2.488-.427L94.577,12.1a6.637,6.637,0,0,1,1.744-6.9A19.185,19.185,0,0,1,109.36,0a20.255,20.255,0,0,1,4.162.49Z" transform="translate(-92.441 0)" fill="#fab300"/>
    </g>
    <g id="svgexport-6_4_" data-name="svgexport-6 (4)" transform="translate(70.447 548.07) rotate(-90)">
      <path id="Path_11761" data-name="Path 11761" d="M2.746,5.492A2.746,2.746,0,0,1,.8.8,2.746,2.746,0,0,1,4.688,4.688,2.728,2.728,0,0,1,2.746,5.492Z" transform="translate(5.578)" fill="#787465"/>
      <path id="Path_11762" data-name="Path 11762" d="M0,3.883a2.746,2.746,0,0,0,3.883,0A2.746,2.746,0,0,0,3.883,0L0,3.883Z" transform="translate(6.382 0.804)" fill="#4c4a40"/>
      <path id="Path_11763" data-name="Path 11763" d="M4.055,4.379a.323.323,0,0,1-.229-.1L.095.554A.324.324,0,0,1,.554.095l3.73,3.73a.324.324,0,0,1-.229.554Z" transform="translate(6.133 0.558)" fill="#b0ac9b"/>
      <path id="Path_11764" data-name="Path 11764" d="M2.324,1.865.459,0,0,.459,1.865,2.324a.324.324,0,0,0,.459-.459Z" transform="translate(8.094 2.518)" fill="#787465"/>
      <path id="Path_11765" data-name="Path 11765" d="M.324,1.277A.324.324,0,0,1,.095.723L.723.1a.324.324,0,0,1,.459.459l-.628.628a.323.323,0,0,1-.229.095Z" transform="translate(0 9.793)" fill="#4c4a40"/>
      <path id="Path_11766" data-name="Path 11766" d="M1.087,0,0,1.087a.324.324,0,0,0,.459,0L1.087.459A.324.324,0,0,0,1.087,0Z" transform="translate(0.095 9.888)" fill="#2e2c27"/>
      <path id="Path_11767" data-name="Path 11767" d="M1.066,2.79a1.059,1.059,0,0,1-.754-.312h0a1.067,1.067,0,0,1,0-1.508L1.186.1a.324.324,0,0,1,.459,0L2.694,1.144a.324.324,0,0,1,0,.459l-.874.874A1.059,1.059,0,0,1,1.066,2.79Z" transform="translate(0.412 7.869)" fill="#a19d8d"/>
      <path id="Path_11768" data-name="Path 11768" d="M2.382.525,1.858,0,0,1.858a1.066,1.066,0,0,0,1.508,0L2.382.983A.324.324,0,0,0,2.382.525Z" transform="translate(0.723 8.489)" fill="#787465"/>
      <path id="Path_11769" data-name="Path 11769" d="M4.175,0,.181,4.65A.76.76,0,0,0,.22,5.678l1,1a.76.76,0,0,0,1.028.039L6.9,2.721Z" transform="translate(1.404 2.771)" fill="#ffcf2c"/>
      <path id="Path_11770" data-name="Path 11770" d="M0,4.816l.5.5a.76.76,0,0,0,1.028.039L6.176,1.36,4.816,0Z" transform="translate(2.122 4.132)" fill="#ff9300"/>
      <path id="Path_11771" data-name="Path 11771" d="M.324,1.151A.324.324,0,0,1,.1.6L.6.1a.324.324,0,0,1,.459.459l-.5.5A.323.323,0,0,1,.324,1.151Z" transform="translate(4.666 5.253)" fill="#696453"/>
      <path id="Path_11772" data-name="Path 11772" d="M.961,0,0,.961a.324.324,0,0,0,.459,0l.5-.5A.324.324,0,0,0,.961,0Z" transform="translate(4.761 5.348)" fill="#2e2c27"/>
    </g>
    <path id="Path_11773" data-name="Path 11773" d="M7.7,383.585,6.277,382.6a1.763,1.763,0,0,0-2.766,1.45v2.33a2.669,2.669,0,1,0,1.828,2.532v-4.738l1.32.914a.914.914,0,0,0,1.041-1.5Zm0,0" transform="translate(-190.901 260.214) rotate(-45)" fill="#fab300"/>
  </g>
</svg>
