<svg xmlns="http://www.w3.org/2000/svg" width="53.165" height="50.91" viewBox="0 0 53.165 50.91">
  <g id="فنانات" transform="translate(-5.468 -12.45)">
    <path id="Path_11605" data-name="Path 11605" d="M222.145,99.826a31.518,31.518,0,0,1,14.613-4.65.917.917,0,0,0,.781-.523l.045-.093a.736.736,0,0,1,.793-.406l.075.013a.737.737,0,0,1,.607.725l.347.032a.986.986,0,0,1,.874,1.188l-.087.407a1.43,1.43,0,0,1-1.16,1.112A25.174,25.174,0,0,0,225.227,104S222.277,102.029,222.145,99.826Z" transform="translate(-181.67 -68.494)" fill="#ffd0b0"/>
    <path id="Path_11606" data-name="Path 11606" d="M240.2,106.738l.087-.407c-.488,1.063-1.991,1.022-1.991,1.022a22.153,22.153,0,0,0-11.057,3.752,1.5,1.5,0,0,1-1.839-.13c-.113-.1-.222-.193-.317-.265a2.681,2.681,0,0,1-.649-.719,4.583,4.583,0,0,0-.695-.875c-1.019.547-1.588.929-1.588.929.132,2.2,3.082,4.17,3.082,4.17a25.184,25.184,0,0,1,13.8-6.366A1.431,1.431,0,0,0,240.2,106.738Z" transform="translate(-181.672 -78.713)" fill="#ef9e9e"/>
    <path id="Path_11607" data-name="Path 11607" d="M67.688,53.114a4.8,4.8,0,0,0,.481-5.469s-2.567-4.386-6.846-1.391c0,0-4.373-.68-6.126,5.045a8.135,8.135,0,0,0-.3,1.507c-.284,2.613-1.679,12.839-6.458,16.835a2.525,2.525,0,0,1-1.593.586,5.081,5.081,0,0,0-3.981,1.79,2.557,2.557,0,0,0-.456,2.456c.275.755.969,1.491,2.654,1.411,0,0-.107,3,2.193,3.316,0,0,2.193.268,2.246,2.3l18.773,1.284,1.07-10.429L65.6,55.667Z" transform="translate(-30.86 -27.465)" fill="#373d4c"/>
    <path id="Path_11608" data-name="Path 11608" d="M182.766,123.935l1.03-.238a3.128,3.128,0,0,1,2.089,0,2.271,2.271,0,0,1,.953,1.179,2.284,2.284,0,0,0,.856,1.054,4.1,4.1,0,0,1,1.955,2.93,3.725,3.725,0,0,1-1.45,3.4l-7.608-2.488L178.6,124.8l1.673-1.066Z" transform="translate(-145.163 -93.109)" fill="#fab300"/>
    <path id="Path_11609" data-name="Path 11609" d="M187.289,125.591a2.319,2.319,0,0,1-.457-.717,2.271,2.271,0,0,0-.953-1.179,3.128,3.128,0,0,0-2.089,0l-1.03.238-2.491-.2L178.6,124.8l.725,1.814,1.551,1.172S185.059,128.735,187.289,125.591Z" transform="translate(-145.157 -93.106)" fill="#5884cc"/>
    <path id="Path_11610" data-name="Path 11610" d="M205.681,164.078a8.144,8.144,0,0,0-1.812.019l5.514,2.149a3.6,3.6,0,0,0,1.06-1.264,11.479,11.479,0,0,0-4.762-.9Z" transform="translate(-166.346 -127.093)" fill="#5884cc"/>
    <path id="Path_11611" data-name="Path 11611" d="M25.215,120.646a25.975,25.975,0,0,0-16.038-1.821l-.136-.25a1.244,1.244,0,0,0-1.622-.533l-.08.037a1.244,1.244,0,0,0-.692.884l-.107.54a2.592,2.592,0,0,1-.443,1.014l-.345.476a1.494,1.494,0,0,0,.007,1.763l.115.156a1.491,1.491,0,0,0,2.016.367L8,123.211a9.654,9.654,0,0,1,6.432-1.152,19.67,19.67,0,0,1,9.52,4.057A3.934,3.934,0,0,0,25.215,120.646Z" transform="translate(0 -88.434)" fill="#ffd0b0"/>
    <path id="Path_11612" data-name="Path 11612" d="M25.594,135.238c-.009.038-.018.078-.026.119a3.238,3.238,0,0,1-1.531,2.341,1.506,1.506,0,0,1-1.428.016l-2.27-1.17c-7.242-2.928-11.916-.355-11.916-.355a2.35,2.35,0,0,1-2.589.521,1.483,1.483,0,0,0,.232.485l.115.156a1.491,1.491,0,0,0,2.016.367l.106-.069a9.653,9.653,0,0,1,6.432-1.152,19.67,19.67,0,0,1,9.52,4.057A3.918,3.918,0,0,0,25.594,135.238Z" transform="translate(-0.306 -102.871)" fill="#ef9e9e"/>
    <path id="Path_11613" data-name="Path 11613" d="M52.789,240.554s-.658,2.783-5.616,2.631c0,0-15.838-1.69-21,11.425H39.127L52.789,243.59Z" transform="translate(-17.361 -191.251)" fill="#5884cc"/>
    <path id="Path_11614" data-name="Path 11614" d="M246.967,250.576a25.008,25.008,0,0,0,6.662,1.006,14.733,14.733,0,0,0,2.054-.081,6.173,6.173,0,0,1,4.928,1.352v7.287Z" transform="translate(-202.481 -199.653)" fill="#5884cc"/>
    <path id="Path_11615" data-name="Path 11615" d="M170.621,83.209c-4.508-1.249-4.439-4.3-4.439-4.3h2.28a1.272,1.272,0,0,0,1.2-.835c.107-.3.2-.61.286-.931a.123.123,0,0,0-.1-.151,2.16,2.16,0,0,1-.661-.217,1.533,1.533,0,0,1,.376-2.819,3,3,0,0,1,.741-.1.219.219,0,0,0,.215-.2c.029-.322.05-.615.065-.865a1.038,1.038,0,0,0-.474-.934.957.957,0,0,0-.521-.142h-.078a1.028,1.028,0,0,1-.924-.58c-2.187-4.5-6.08-3.115-6.08-3.115,1.506,4.807.021,10.417.021,10.417a9.346,9.346,0,0,0-.222,4.661l.755,4.482,6.52,1.873,2.428-3.745c.417-1.457-1.387-2.5-1.387-2.5Z" transform="translate(-131.349 -46.422)" fill="#ffd0b0"/>
    <path id="Path_11616" data-name="Path 11616" d="M201.883,180.608l.482-.852a13.217,13.217,0,0,1-2.092-1.69.147.147,0,0,0-.234.171A7.494,7.494,0,0,0,201.883,180.608Z" transform="translate(-163.123 -138.824)" fill="#ef9e9e"/>
    <path id="Path_11617" data-name="Path 11617" d="M162.534,79.477a9.346,9.346,0,0,0-.222,4.661l.755,4.482,2.782.8a4.434,4.434,0,0,1-1.706-1.939,11.538,11.538,0,0,1-.93-3.783,17.239,17.239,0,0,1,.248-4.662c.334-1.815.556-4.349.556-4.349.044-3.806-1.506-5.627-1.506-5.627C164.019,73.867,162.534,79.477,162.534,79.477Z" transform="translate(-131.355 -47.463)" fill="#ef9e9e"/>
    <path id="Path_11618" data-name="Path 11618" d="M87.731,134.768a16.462,16.462,0,0,1,5.313,3.262,1.306,1.306,0,0,1,.337.705,5.661,5.661,0,0,0,5.484,5.178,3.088,3.088,0,0,0,3.191-3.381,5.722,5.722,0,0,0-.267-1.189,5.716,5.716,0,0,1,4.244,2.344,4.058,4.058,0,0,1,.551,1.23c.317,1.187.709,3.783-1.227,5.552l.639,2.555a2.5,2.5,0,0,0,1.62,1.755,29.4,29.4,0,0,1,13.03,8.776v4.361H80.031s2.092-6.854,15.044-10.37a3.114,3.114,0,0,0,2.078-2.832,2.764,2.764,0,0,0-1.42-2.473,4.334,4.334,0,0,1-2.038-2.929,5.115,5.115,0,0,1-2.068.7,3.156,3.156,0,0,1-3.5-3.719q.019-.09.044-.182a3.369,3.369,0,0,1-2.626-3.027,4.431,4.431,0,0,1,1.029-2.958,4.623,4.623,0,0,0,.879-1.385A3.453,3.453,0,0,0,87.731,134.768Z" transform="translate(-62.516 -102.556)" fill="#fab300"/>
    <path id="Path_11619" data-name="Path 11619" d="M184.792,92.682a.414.414,0,0,1-.064-.824.912.912,0,0,0,.432-.242.414.414,0,1,1,.576.6,1.713,1.713,0,0,1-.885.466A.407.407,0,0,1,184.792,92.682Z" transform="translate(-150.002 -66.278)" fill="#e88787"/>
    <path id="Path_11620" data-name="Path 11620" d="M157.778,198.373a4.806,4.806,0,0,0,1.1-.492,10.528,10.528,0,0,1,.132-2.6.166.166,0,0,0-.3-.117A6.078,6.078,0,0,0,157.778,198.373Z" transform="translate(-127.702 -153.125)" fill="#5884cc"/>
    <path id="Path_11621" data-name="Path 11621" d="M176.852,138.653a3.7,3.7,0,0,1-.882-2.189h-1.887a.282.282,0,0,0-.193.488A7,7,0,0,0,176.852,138.653Z" transform="translate(-141.136 -103.978)" fill="#ef9e9e"/>
    <path id="Path_11622" data-name="Path 11622" d="M177.348,221.352a2.86,2.86,0,0,1,1.262,1.527,5.413,5.413,0,0,0,5.115-1.481,1.519,1.519,0,0,1,1.092-.45,5.9,5.9,0,0,0,2.371-.436l-.237-.946a4.737,4.737,0,0,1-2.535.422,1.476,1.476,0,0,0-.98.367,7.636,7.636,0,0,1-1.032.749,3.955,3.955,0,0,1-1.722.565A8.7,8.7,0,0,1,177.348,221.352Z" transform="translate(-144.11 -173.654)" fill="#5884cc"/>
    <path id="Path_11623" data-name="Path 11623" d="M69.319,15.864a1.522,1.522,0,0,0-.707,1.289v5.423c-.271-.036-.578-.065-.915-.081a1.653,1.653,0,0,0-1.764,1.382.637.637,0,0,0,.63.745H68.5a1.4,1.4,0,0,0,1.4-1.4v-3.9a.991.991,0,0,1,.723-.953l1.9-.533a1.276,1.276,0,0,0,.909-.991l.505-2.664a12.848,12.848,0,0,0-4.617,1.685Z" transform="translate(-50.689 -1.45)" fill="#7a7979"/>
    <path id="Path_11624" data-name="Path 11624" d="M249.142,19.715l-.747-6.609a.738.738,0,0,0-.977-.615,25.013,25.013,0,0,0-4.31,1.948,1.348,1.348,0,0,0-.646,1.424l.815,4.125a.592.592,0,0,1-.423.683q-.09.025-.172.053a.953.953,0,0,0-.192,1.723l.016.01a.91.91,0,0,0,.661.1c1.513-.363,1.435-1.425,1.329-1.872-.058-.246-.117-.492-.163-.741l-.449-2.383a.549.549,0,0,1,.416-.637l2.929-.675a.56.56,0,0,1,.681.48l.241,2.063a.587.587,0,0,1-.45.643,4.174,4.174,0,0,0-.412.113.953.953,0,0,0-.192,1.723l.016.009a.911.911,0,0,0,.661.1c1.305-.313,1.426-1.146,1.367-1.657Z" transform="translate(-198.34 0)" fill="#ffca58"/>
  </g>
</svg>
