<svg xmlns="http://www.w3.org/2000/svg" width="55.08" height="54.995" viewBox="0 0 55.08 54.995">
  <g id="فنانيين" transform="translate(-15.998 -15.998)">
    <g id="flat" transform="translate(15.998 15.998)">
      <path id="Path_11584" data-name="Path 11584" d="M57.7,223.844l-.932,6.524H53.916a1.165,1.165,0,0,1-1.12-.845l-1.623-5.679L50.1,229.436l.932,11.184H34.4v-23.3l-2.35,1.378-3.342,1.958a2.931,2.931,0,0,1-1.616.584c-.05,0-.1,0-.149,0a2.94,2.94,0,0,1-2.629-4.256,6.009,6.009,0,0,1,2.225-2.431l7.306-4.5A13.907,13.907,0,0,1,41.128,208H44.65l5.592,1.864,3.431,1.75a7.225,7.225,0,0,1,3.941,6.333Z" transform="translate(-23.068 -185.632)" fill="#7a7979"/>
      <path id="Path_11585" data-name="Path 11585" d="M186.834,265.315a.932.932,0,0,1-.87-1.264l2.843-7.456a.932.932,0,0,1,1.742.664l-2.843,7.456A.932.932,0,0,1,186.834,265.315Z" transform="translate(-166.108 -228.035)" fill="#fee9b5"/>
      <path id="Path_11586" data-name="Path 11586" d="M185.864,411.932v8.038H184v-8.038a.932.932,0,0,1,1.864,0Z" transform="translate(-164.428 -364.982)" fill="#fee9b5"/>
      <path id="Path_11587" data-name="Path 11587" d="M305.245,371.728l9.32-.932V368h-9.2Z" transform="translate(-271.548 -326.992)" fill="#f6bb92"/>
      <path id="Path_11588" data-name="Path 11588" d="M21.591,87.456a.932.932,0,0,1-.418-1.766l1.349-.674V81.864h-2.8v2.8a.932.932,0,0,1-.515.834l-1.864.932a.932.932,0,1,1-.834-1.667l1.349-.674V80.932A.932.932,0,0,1,18.794,80h4.66a.932.932,0,0,1,.932.932v4.66a.932.932,0,0,1-.515.834l-1.864.932a.929.929,0,0,1-.416.1Z" transform="translate(-15.998 -72.544)" fill="#7a7979"/>
      <path id="Path_11589" data-name="Path 11589" d="M360.936,24.387a.932.932,0,0,1-.664-1.585l1.057-1.075-1.022-2.982a.932.932,0,0,1,.579-1.184l4.408-1.511a.932.932,0,0,1,1.184.579l1.511,4.408a.932.932,0,0,1-.217.955l-1.461,1.486a.932.932,0,1,1-1.329-1.307l1.057-1.075-1.022-2.982-2.645.907.907,2.645a.932.932,0,0,1-.217.955L361.6,24.108A.929.929,0,0,1,360.936,24.387Z" transform="translate(-319.928 -15.998)" fill="#a1a0a0"/>
      <path id="Path_11590" data-name="Path 11590" d="M424.929,150.523a.932.932,0,0,1-.418-1.766l1.349-.674v-2.22a.932.932,0,0,1,.515-.834l1.864-.932a.932.932,0,1,1,.834,1.667l-1.349.674v2.22a.932.932,0,0,1-.515.834l-1.864.932A.929.929,0,0,1,424.929,150.523Z" transform="translate(-376.464 -129.086)" fill="#f55648"/>
      <path id="Path_11591" data-name="Path 11591" d="M59.909,304.955a6.5,6.5,0,0,0-4.262,1.587,8.386,8.386,0,1,0,.961,10.564,6.524,6.524,0,1,0,3.3-12.151Z" transform="translate(-38.328 -270.471)" fill="#fab300"/>
      <g id="Group_17223" data-name="Group 17223" transform="translate(18.64 22.368)">
        <path id="Path_11592" data-name="Path 11592" d="M178.941,208,176,209.864l4.929,5.592Z" transform="translate(-176 -208)" fill="#fab300"/>
        <path id="Path_11593" data-name="Path 11593" d="M220.833,208l-2.527,7.456,5.323-2.8Z" transform="translate(-213.377 -208)" fill="#fab300"/>
        <path id="Path_11594" data-name="Path 11594" d="M248.934,309.589a.933.933,0,0,1-.9-1.158l.932-3.728a.932.932,0,0,1,1.808.452l-.932,3.728A.932.932,0,0,1,248.934,309.589Z" transform="translate(-239.614 -292.813)" fill="#fee9b5"/>
      </g>
      <path id="Path_11595" data-name="Path 11595" d="M0,0H10.252V3.728H0Z" transform="matrix(0.905, 0.426, -0.426, 0.905, 35.277, 18.153)" fill="#cfcfcf"/>
      <circle id="Ellipse_1" data-name="Ellipse 1" cx="2.796" cy="2.796" r="2.796" transform="translate(31.689 17.031)" fill="#7a7979"/>
      <path id="Path_11596" data-name="Path 11596" d="M206.842,176v5.592l-3.6,5.592-1.987-7.456V176Z" transform="translate(-179.668 -157.36)" fill="#f6bb92"/>
      <path id="Path_11597" data-name="Path 11597" d="M206.842,184v1.36a3.73,3.73,0,0,1-5.592.331V184Z" transform="translate(-179.668 -164.428)" fill="#eeb58e"/>
      <path id="Path_11598" data-name="Path 11598" d="M178.252,85.476,168,88.388V85.359A5.359,5.359,0,0,1,173.359,80h5.359a2.33,2.33,0,0,1,0,4.66h-.466Z" transform="translate(-150.292 -72.544)" fill="#834b10"/>
      <path id="Path_11599" data-name="Path 11599" d="M170.8,139.728h-.932a1.864,1.864,0,0,1,0-3.728h.932Z" transform="translate(-150.292 -122.02)" fill="#f6bb92"/>
      <ellipse id="Ellipse_2" data-name="Ellipse 2" cx="4.32" cy="3.6" rx="4.32" ry="3.6" transform="translate(8.64 38.88)" fill="#d18d28"/>
      <path id="Path_11600" data-name="Path 11600" d="M211.587,316.66l-4.089,1.864-3.459-1.141-28.892,3.133-.113-3.71,29-3.171L206.566,312l4.66.949Z" transform="translate(-156.506 -277.516)" fill="#fab300"/>
      <path id="Path_11601" data-name="Path 11601" d="M60.624,304.976l-2.8-2.8-2.35-2.35-3.342,1.958a2.931,2.931,0,0,1-1.616.584l7.308,4.789.932.61,1.657,2.485a.7.7,0,0,0,.582.311h3.587a.7.7,0,0,0,.7-.7v-3.388a.7.7,0,0,0-.562-.685Z" transform="translate(-46.498 -266.763)" fill="#f6bb92"/>
      <path id="Path_11602" data-name="Path 11602" d="M345.245,358.293V355.25a.932.932,0,0,1,.749-.914l2.8-.559a.932.932,0,0,1,1.115.914v2.95a.7.7,0,0,1-.562.685l-3.262.652a.7.7,0,0,1-.836-.685Z" transform="translate(-306.888 -314.409)" fill="#f6bb92"/>
      <path id="Path_11603" data-name="Path 11603" d="M336.2,224.047l-.2-28.892a.933.933,0,0,1,.057-.328l2.059-5.592,1.749.644-2,5.433.194,28.723Z" transform="translate(-298.719 -169.053)" fill="#fab300"/>
      <path id="Path_11604" data-name="Path 11604" d="M195.728,129.32A3.728,3.728,0,0,1,192,125.592V120h7.456v5.592A3.728,3.728,0,0,1,195.728,129.32Z" transform="translate(-171.496 -107.884)" fill="#f6bb92"/>
    </g>
  </g>
</svg>
