<svg xmlns="http://www.w3.org/2000/svg" width="45.501" height="54.995" viewBox="0 0 45.501 54.995">
  <g id="لوازم_افراح" data-name="لوازم افراح" transform="translate(-7.006 -0.991)">
    <path id="Path_11813" data-name="Path 11813" d="M23.594,31.34l-1.473-1.194a5.319,5.319,0,0,0-1.648-8.058l.879-1.68a7.215,7.215,0,0,1,2.242,10.933Z" transform="translate(-0.7 -1.009)" fill="#d1d4d1"/>
    <path id="Path_11814" data-name="Path 11814" d="M30.785,28.551a.948.948,0,0,1-.94-.844,6.674,6.674,0,0,0-.8-2.474A8.546,8.546,0,0,1,28,20.948a.948.948,0,0,1,1.9,0,6.674,6.674,0,0,0,.853,3.45,8.547,8.547,0,0,1,.983,3.1.948.948,0,0,1-.838,1.048.983.983,0,0,1-.109.006Z" transform="translate(-1.091 -0.988)" fill="#547580"/>
    <path id="Path_11815" data-name="Path 11815" d="M21.23,21.442l-7.821,7.831H10.792a.766.766,0,0,0-.152.009L7.048,17.271a.981.981,0,0,1,1.223-1.223l12.562,3.764a.977.977,0,0,1,.4,1.631Z" transform="translate(0 -0.78)" fill="#f0c419"/>
    <path id="Path_11816" data-name="Path 11816" d="M10.19,27.537c1.043-1.076,4.754-5.137,6.257-8.994l-4.24-1.277A24.8,24.8,0,0,1,8.7,22.535Z" transform="translate(-0.088 -0.846)" fill="#e64c3c"/>
    <path id="Path_11817" data-name="Path 11817" d="M46.922,30H10.9a.767.767,0,0,0-.152.009A1.9,1.9,0,0,0,9,31.9V55.6a1.9,1.9,0,0,0,1.9,1.9H46.922a1.9,1.9,0,0,0,1.9-1.9V31.9A1.9,1.9,0,0,0,46.922,30ZM37.83,37.025a1.853,1.853,0,0,1-1.337.559H21.325a1.9,1.9,0,1,1,0-3.792H36.493a1.9,1.9,0,0,1,1.9,1.9A1.853,1.853,0,0,1,37.83,37.025Z" transform="translate(-0.104 -1.507)" fill="#fab300"/>
    <path id="Path_11818" data-name="Path 11818" d="M29.506,28.983a.671.671,0,0,1,.079-.156L39.9,11.506a2.237,2.237,0,0,1,3.067-.773l9.617,5.735a2.242,2.242,0,0,1,.784,3.068l-5.631,9.446Z" transform="translate(-1.169 -0.49)" fill="#3b97d3"/>
    <circle id="Ellipse_17" data-name="Ellipse 17" cx="2.239" cy="2.239" r="2.239" transform="translate(40.929 16.639)" fill="#7a7979"/>
    <path id="Path_11819" data-name="Path 11819" d="M42.75,29.764H36.312a3.358,3.358,0,1,1,6.437,0Z" transform="translate(-1.515 -1.271)" fill="#7a7979"/>
    <path id="Path_11820" data-name="Path 11820" d="M35.272,7.636c0,4.188-2.971,8.532-6.636,8.532S22,11.824,22,7.636A6.325,6.325,0,0,1,28.636,1a6.325,6.325,0,0,1,6.636,6.636Z" transform="translate(-0.779 0)" fill="#ff5364"/>
    <path id="Path_11821" data-name="Path 11821" d="M29.844,20.792h-1.9A.948.948,0,0,1,27,19.844V18.9a1.9,1.9,0,1,1,3.792,0v.948A.948.948,0,0,1,29.844,20.792Z" transform="translate(-1.039 -0.832)" fill="#df4d60"/>
  </g>
</svg>
