<svg xmlns="http://www.w3.org/2000/svg" width="48.321" height="50.91" viewBox="0 0 48.321 50.91">
  <g id="مصورين" transform="translate(-5 -3)">
    <path id="Path_11625" data-name="Path 11625" d="M43.669,17H29V27.519A5.176,5.176,0,0,0,30.863,31.5l4.058,2.224a4.366,4.366,0,0,0,2.1.538h2.938a4.368,4.368,0,0,0,2.1-.538L46.121,31.5a5.18,5.18,0,0,0,1.862-3.977V20.452Z" transform="translate(-3.291 -1.92)" fill="#fce0b9"/>
    <path id="Path_11626" data-name="Path 11626" d="M51,21v4.314h1.294a2.157,2.157,0,1,0,0-4.314Z" transform="translate(-6.307 -2.468)" fill="#fce0b9"/>
    <path id="Path_11627" data-name="Path 11627" d="M43.669,17H29v2.589H43.669l4.314,3.452V20.452Z" transform="translate(-3.291 -1.92)" fill="#fad3ac"/>
    <ellipse id="Ellipse_3" data-name="Ellipse 3" cx="0.863" cy="1.294" rx="0.863" ry="1.294" transform="translate(36.711 20.258)" fill="#91672c"/>
    <path id="Path_11628" data-name="Path 11628" d="M37.236,33.486A3.239,3.239,0,0,1,34,30.25h1.294a1.941,1.941,0,0,0,3.883,0h1.294A3.239,3.239,0,0,1,37.236,33.486Z" transform="translate(-3.976 -3.736)" fill="#c47c66"/>
    <circle id="Ellipse_4" data-name="Ellipse 4" cx="0.431" cy="0.431" r="0.431" transform="translate(37.574 21.121)" fill="#fff"/>
    <path id="Path_11629" data-name="Path 11629" d="M23.314,42.894C20.913,43.867,19,44.975,19,46.04l.863,12.943H54.378l.863-12.943c0-2.86-13.806-6.04-13.806-6.04H32.806Z" transform="translate(-1.92 -5.073)" fill="#fab300"/>
    <path id="Path_11630" data-name="Path 11630" d="M23.314,45.483l9.492-2.894h8.629S53.619,45.4,55.094,48.107l.148-2.067c0-2.86-13.806-6.04-13.806-6.04H32.806l-9.492,2.894C20.913,43.867,19,44.975,19,46.04l.149,2.087c.475-.906,2.138-1.824,4.165-2.645Z" transform="translate(-1.92 -5.073)" fill="#cfb259"/>
    <path id="Path_11631" data-name="Path 11631" d="M42.885,36.311a4.366,4.366,0,0,1-2.1.538H37.845a4.368,4.368,0,0,1-2.1-.538L35,35.9v5.26a6.1,6.1,0,0,0,8.629,0V35.9Z" transform="translate(-4.114 -4.512)" fill="#fce0b9"/>
    <path id="Path_11632" data-name="Path 11632" d="M43.629,35.9l-.744.407a4.366,4.366,0,0,1-2.1.538H37.845a4.368,4.368,0,0,1-2.1-.538L35,35.9v5.26c.136.136.279.262.424.383l8.205-5.314Z" transform="translate(-4.114 -4.512)" fill="#fad3ac"/>
    <path id="Path_11633" data-name="Path 11633" d="M43.836,10.766V15.08l4.314,3.452h1.294a2.158,2.158,0,0,1,.84.169,13.271,13.271,0,0,0,.455-3.621A12.071,12.071,0,0,0,30.218,6.452h9.3A4.315,4.315,0,0,1,43.836,10.766Z" transform="translate(-3.458)" fill="#1a326e"/>
    <path id="Path_11634" data-name="Path 11634" d="M42.709,15.629V11.314A4.315,4.315,0,0,0,38.395,7H26.314a4.314,4.314,0,1,0,0,8.629H42.709Z" transform="translate(-2.331 -0.548)" fill="#1a326e"/>
    <path id="Path_11635" data-name="Path 11635" d="M26.314,14.452A4.315,4.315,0,0,1,22.087,11a4.314,4.314,0,0,0,4.227,5.177H42.709V14.452H26.314Z" transform="translate(-2.331 -1.097)" fill="#172c61"/>
    <path id="Path_11636" data-name="Path 11636" d="M43.836,15.4l3.452,2.761V13.325A7.992,7.992,0,0,0,39.3,5.333h-7.3c-.035.023-.067.051-.1.075a12.279,12.279,0,0,0-1.673,1.363h9.3a4.315,4.315,0,0,1,4.314,4.314Z" transform="translate(-3.458 -0.32)" fill="#13244f"/>
    <path id="Path_11637" data-name="Path 11637" d="M34.435,34.806H12.863A.863.863,0,0,1,12,33.943V21.863A.863.863,0,0,1,12.863,21H34.435a.863.863,0,0,1,.863.863v12.08A.863.863,0,0,1,34.435,34.806Z" transform="translate(-0.96 -2.468)" fill="#606060"/>
    <path id="Path_11638" data-name="Path 11638" d="M28.093,18.307A1.727,1.727,0,0,0,26.418,17H22.211a1.725,1.725,0,0,0-1.674,1.307L20,20.452h8.629Z" transform="translate(-2.057 -1.92)" fill="#606060"/>
    <path id="Path_11639" data-name="Path 11639" d="M33,50.705l-2.878-10.89a2.582,2.582,0,0,1,.657-2.535,2.579,2.579,0,0,0,.743-1.569l.52-5.2A2.284,2.284,0,0,0,29.769,28h-.064l-12.08.863h-.633a1.726,1.726,0,0,0-1.713,1.94l.506,4.047a1.726,1.726,0,0,0,.941,1.33l2.766,1.383a7.5,7.5,0,0,1,2.647,2.21,10.658,10.658,0,0,1,1.967,4.538l2.148,13.028H46.1V52.161Z" transform="translate(-1.408 -3.428)" fill="#fce0b9"/>
    <path id="Path_11640" data-name="Path 11640" d="M24.04,34.08A6.04,6.04,0,1,0,18,28.04,6.04,6.04,0,0,0,24.04,34.08Zm0-8.629a2.589,2.589,0,1,1-2.589,2.589A2.588,2.588,0,0,1,24.04,25.452Z" transform="translate(-1.783 -2.605)" fill="#606060"/>
    <ellipse id="Ellipse_5" data-name="Ellipse 5" cx="3" cy="2.5" rx="3" ry="2.5" transform="translate(19.864 23)" fill="#71caf0"/>
    <ellipse id="Ellipse_6" data-name="Ellipse 6" cx="1" cy="0.5" rx="1" ry="0.5" transform="translate(21.864 25)" fill="#fff"/>
    <path id="Path_11641" data-name="Path 11641" d="M14.492,34.283a3.452,3.452,0,0,1-3.452-3.452c1.192,0,.863-.966.863-2.157v-8.2h1.726V19.385a1.726,1.726,0,0,0-1.482-1.709L8.82,17.2a1.726,1.726,0,0,0-1.788.936l-1.85,3.7A1.728,1.728,0,0,0,5,22.61V33.359A4.318,4.318,0,0,0,6.263,36.41l2.65,2.65a4.312,4.312,0,0,1,1.264,3.05V55.855h9.492Z" transform="translate(0 -1.945)" fill="#fce0b9"/>
    <path id="Path_11642" data-name="Path 11642" d="M23.766,20A7.765,7.765,0,0,0,16,27.766c0,.129.013.253.019.38a1.709,1.709,0,0,1,1.073-.38h.634a6.036,6.036,0,0,1,12.012-.858l.068-.005h.064a2.272,2.272,0,0,1,1.655.716A7.763,7.763,0,0,0,23.766,20Z" transform="translate(-1.508 -2.331)" fill="#454545"/>
    <path id="Path_11643" data-name="Path 11643" d="M22.863,12.177a4.315,4.315,0,0,1,4.314-4.314h12.08a4.279,4.279,0,0,1,2.578.873A4.3,4.3,0,0,0,38.395,7H26.314a4.3,4.3,0,0,0-2.578,7.756A4.279,4.279,0,0,1,22.863,12.177Z" transform="translate(-2.331 -0.548)" fill="#21408c"/>
    <path id="Path_11644" data-name="Path 11644" d="M50,52h1.726v8.629H50Z" transform="translate(-6.17 -6.719)" fill="#cfb259"/>
    <g id="Group_17224" data-name="Group 17224" transform="translate(9.314 18.532)">
      <path id="Path_11645" data-name="Path 11645" d="M10,21h2.589v1.726H10Z" transform="translate(-10 -21)" fill="#fad3ac"/>
      <path id="Path_11646" data-name="Path 11646" d="M10,25h2.589v1.726H10Z" transform="translate(-10 -21.548)" fill="#fad3ac"/>
      <path id="Path_11647" data-name="Path 11647" d="M10,29h2.589v1.726H10Z" transform="translate(-10 -22.097)" fill="#fad3ac"/>
    </g>
  </g>
</svg>
