<svg xmlns="http://www.w3.org/2000/svg" width="37.104" height="50.91" viewBox="0 0 37.104 50.91">
  <g id="مصورات" transform="translate(-40 -24)">
    <path id="Path_11795" data-name="Path 11795" d="M168,120h3.452v2.589H168Z" transform="translate(-114.194 -85.645)" fill="#ffb531"/>
    <path id="Path_11796" data-name="Path 11796" d="M61.678,334.744,56.233,345.56a2.908,2.908,0,0,0,5.266,2.448l6.068-7.949.7-1.656Z" transform="translate(-14.296 -277.227)" fill="#fec093"/>
    <path id="Path_11797" data-name="Path 11797" d="M134.557,216.028l-6.028-1a.863.863,0,0,1-.721-.851V208h-6.9v6.115a.863.863,0,0,1-.785.859l-4.89.444a6.9,6.9,0,0,0-5.541,3.771l-1.249,2.481,6.586,3.659-.7,1.656.054-.07a6.6,6.6,0,0,0,1.27,6.108l.074,6.04h22.435v-18.78a4.314,4.314,0,0,0-3.605-4.256Z" transform="translate(-61.058 -164.154)" fill="#fec9a3"/>
    <path id="Path_11798" data-name="Path 11798" d="M230.9,219.5V216H224v3.5A7.7,7.7,0,0,0,230.9,219.5Z" transform="translate(-164.154 -171.291)" fill="#feb784"/>
    <path id="Path_11799" data-name="Path 11799" d="M138.162,283.439h-5.177a6.7,6.7,0,0,1,0,8.629v6.04H115.727l-.026-2.1-.049-3.943a6.6,6.6,0,0,1-1.27-6.108l.643-1.586-6.586-3.659,1.251-2.473a6.9,6.9,0,0,1,5.545-3.779l3.079-.28v1.49a6.04,6.04,0,0,0,12.08,0v-1.294l4.161.694a4.315,4.315,0,0,1,3.6,4.255Z" transform="translate(-61.058 -223.198)" fill="#7a7979"/>
    <path id="Path_11800" data-name="Path 11800" d="M198.221,303.545h-5.177a6.7,6.7,0,0,1,0,8.629v6.04H175.786l-.026-2.1c8.733-4.664,15.92-10.549,21.5-19.4a4.3,4.3,0,0,1,.961,2.714Z" transform="translate(-121.117 -243.304)" fill="#7a7979"/>
    <path id="Path_11801" data-name="Path 11801" d="M314.589,64H312v3.452h.863a1.726,1.726,0,0,1,1.726,1.726v9.492a5.177,5.177,0,0,0,5.177,5.177V69.177A5.177,5.177,0,0,0,314.589,64Z" transform="translate(-242.662 -35.686)" fill="#13244f"/>
    <path id="Path_11802" data-name="Path 11802" d="M154.589,128h.863v5.177h-.863a2.589,2.589,0,1,1,0-5.177Z" transform="translate(-99.92 -92.783)" fill="#feb784"/>
    <path id="Path_11803" data-name="Path 11803" d="M199.532,54.9v6.04a7.766,7.766,0,0,1-7.765,7.766c-.077,0-.153,0-.228,0A7.768,7.768,0,0,1,184,60.943V54.9a6.9,6.9,0,0,1,6.9-6.9h1.726a6.9,6.9,0,0,1,6.9,6.9Z" transform="translate(-128.468 -21.411)" fill="#fec9a3"/>
    <path id="Path_11804" data-name="Path 11804" d="M261.884,55.8v6.04a7.766,7.766,0,0,1-7.765,7.766c-.077,0-.153,0-.228,0a7.763,7.763,0,0,0,4.2-6.9V54.078a7.731,7.731,0,0,0-1.882-5.068A6.9,6.9,0,0,1,261.884,55.8Z" transform="translate(-190.82 -22.312)" fill="#fec093"/>
    <circle id="Ellipse_13" data-name="Ellipse 13" cx="1.294" cy="1.294" r="1.294" transform="translate(65.94 35.217)" fill="#7a432a"/>
    <circle id="Ellipse_14" data-name="Ellipse 14" cx="1.294" cy="1.294" r="1.294" transform="translate(58.174 35.217)" fill="#7a432a"/>
    <path id="Path_11805" data-name="Path 11805" d="M186.983,32.629V36.08l-1.726-.863-3.452-6.9s-.767.614-1.98,1.474c-2.857,2.028-8.192,5.429-11.826,5.429V32.629A8.625,8.625,0,0,1,176.629,24h1.726a8.629,8.629,0,0,1,8.629,8.629Z" transform="translate(-114.194 0)" fill="#1a326e"/>
    <path id="Path_11806" data-name="Path 11806" d="M241.606,171.565H240v-1.726h1.606a6.423,6.423,0,0,0,3.136-.745l.87,1.49A8.06,8.06,0,0,1,241.606,171.565Z" transform="translate(-178.428 -128.444)" fill="#fab300"/>
    <path id="Path_11807" data-name="Path 11807" d="M81.258,233.726v6.9a1.726,1.726,0,0,1-1.726,1.726H65.726A1.726,1.726,0,0,1,64,240.629v-6.9A1.726,1.726,0,0,1,65.726,232H79.532A1.726,1.726,0,0,1,81.258,233.726Z" transform="translate(-21.411 -185.565)" fill="#606060"/>
    <path id="Path_11808" data-name="Path 11808" d="M160,200h5.177v3.452H160Z" transform="translate(-107.057 -157.017)" fill="#7a7979"/>
    <path id="Path_11809" data-name="Path 11809" d="M240.039,32.629V36.08l-1.726-.863-3.452-6.9s-.767.614-1.98,1.474a7.777,7.777,0,0,0-5.411-5.5A8.613,8.613,0,0,1,229.684,24h1.726A8.629,8.629,0,0,1,240.039,32.629Z" transform="translate(-167.249 0)" fill="#1a326e"/>
    <path id="Path_11810" data-name="Path 11810" d="M328,128h.863a2.589,2.589,0,1,1,0,5.177H328Z" transform="translate(-256.936 -92.783)" fill="#feb784"/>
    <path id="Path_11811" data-name="Path 11811" d="M135.3,236.063v6.9a1.726,1.726,0,0,1-1.726,1.726h-9a23.214,23.214,0,0,0,9.944-10.072A1.721,1.721,0,0,1,135.3,236.063Z" transform="translate(-75.457 -187.902)" fill="#606060"/>
    <ellipse id="Ellipse_15" data-name="Ellipse 15" cx="5.137" cy="5.708" rx="5.137" ry="5.708" transform="translate(46.85 45.692)" fill="#454545"/>
    <ellipse id="Ellipse_16" data-name="Ellipse 16" cx="2.854" cy="2.283" rx="2.854" ry="2.283" transform="translate(49.133 49.117)" fill="#71caf0"/>
    <path id="Path_11812" data-name="Path 11812" d="M47.766,297.689v-2.157l-.863-6.04V280H42.24A2.24,2.24,0,0,0,40,282.24v2.087a4.416,4.416,0,0,0,.316,1.639l1.41,3.525v8.2a3.02,3.02,0,0,0,6.04,0Z" transform="translate(0 -228.388)" fill="#fec9a3"/>
  </g>
</svg>
