<svg xmlns="http://www.w3.org/2000/svg" width="28.378" height="34.563" viewBox="0 0 28.378 34.563">
  <g id="مقدم_خدمه" data-name="مقدم خدمه" transform="translate(-45.812 0)">
    <g id="Group_17334" data-name="Group 17334" transform="translate(61.285 5.594)">
      <g id="Group_17333" data-name="Group 17333" transform="translate(0)">
        <path id="Path_11913" data-name="Path 11913" d="M279.856,106.339l-3.7-21.6a.943.943,0,0,0,.057-1.865c-.052.209.007.033-1.193,3.262l3.5,20.436a.678.678,0,1,0,1.336-.229Z" transform="translate(-275.021 -82.871)" fill="#fab300"/>
      </g>
    </g>
    <g id="Group_17336" data-name="Group 17336" transform="translate(45.812 3.511)">
      <g id="Group_17335" data-name="Group 17335" transform="translate(0)">
        <path id="Path_11914" data-name="Path 11914" d="M59.041,60.012l2.241-6.033a1.454,1.454,0,0,0-2.726-1.013L56.76,57.8l-4.526-1.046,3.414.1a2.168,2.168,0,0,0-2.421-1.225l-3.784.8A2.168,2.168,0,0,0,47.768,59l2.2,10.433-.3,5.068-3.612,6a1.694,1.694,0,1,0,2.9,1.746l3.827-6.361a1.7,1.7,0,0,0,.24-.774l.348-5.927,1.384-.291,1.866,4.54.082,7.958a1.694,1.694,0,0,0,3.388-.035l-.085-8.284a1.7,1.7,0,0,0-.127-.627l-1.839-4.473L56.769,61.93l-5.189-2.342,5.771,1.334A1.454,1.454,0,0,0,59.041,60.012Z" transform="translate(-45.812 -52.018)" fill="#fab300"/>
      </g>
    </g>
    <g id="Group_17338" data-name="Group 17338" transform="translate(47.694 0)">
      <g id="Group_17337" data-name="Group 17337" transform="translate(0 0)">
        <path id="Path_11915" data-name="Path 11915" d="M83.361,4.213a1.789,1.789,0,0,0-3.341-.232,3.221,3.221,0,1,0-.128.4,1.788,1.788,0,0,0,2.754,1.827l.739-1.989Z" transform="translate(-73.694 0)" fill="#fab300"/>
      </g>
    </g>
    <g id="Group_17340" data-name="Group 17340" transform="translate(65.76 1.105)">
      <g id="Group_17339" data-name="Group 17339">
        <path id="Path_11916" data-name="Path 11916" d="M348.938,16.424h0l-5.044,1.145,0,.008a.564.564,0,0,0-.333.515v3.835a2.251,2.251,0,0,0-.564-.071c-.935,0-1.693.556-1.693,1.242s.758,1.242,1.693,1.242a1.527,1.527,0,0,0,1.681-1.389c0-.085.009-.745.012-3.4l3.915-.889v2.113a2.251,2.251,0,0,0-.564-.071c-.935,0-1.693.556-1.693,1.242s.758,1.242,1.693,1.242a1.527,1.527,0,0,0,1.681-1.389c0-.086.007-.481.012-4.859A.565.565,0,0,0,348.938,16.424Z" transform="translate(-341.305 -16.373)" fill="#fab300"/>
      </g>
    </g>
  </g>
</svg>
