<svg xmlns="http://www.w3.org/2000/svg" xmlns:xlink="http://www.w3.org/1999/xlink" width="56" height="56" viewBox="0 0 56 56">
  <defs>
    <filter id="Ellipse_87" x="0" y="0" width="56" height="56" filterUnits="userSpaceOnUse">
      <feOffset input="SourceAlpha"/>
      <feGaussianBlur stdDeviation="3" result="blur"/>
      <feFlood flood-color="#a1a1a1" flood-opacity="0.259"/>
      <feComposite operator="in" in2="blur"/>
      <feComposite in="SourceGraphic"/>
    </filter>
  </defs>
  <g id="مكان_الحجز" data-name="مكان الحجز" transform="translate(-47 -140)">
    <g transform="matrix(1, 0, 0, 1, 47, 140)" filter="url(#Ellipse_87)">
      <circle id="Ellipse_87-2" data-name="Ellipse 87" cx="19" cy="19" r="19" transform="translate(9 9)" fill="#fff"/>
    </g>
    <g id="svgexport-6_20_" data-name="svgexport-6 (20)" transform="translate(68 158)">
      <g id="Group_17347" data-name="Group 17347">
        <g id="Group_17346" data-name="Group 17346" transform="translate(0)">
          <path id="Path_11918" data-name="Path 11918" d="M77.529,0a6.964,6.964,0,0,0-6.956,6.956c0,4.76,6.225,11.748,6.49,12.044A.627.627,0,0,0,78,19c.265-.3,6.49-7.283,6.49-12.044A6.964,6.964,0,0,0,77.529,0Zm0,10.456a3.5,3.5,0,1,1,3.5-3.5A3.5,3.5,0,0,1,77.529,10.456Z" transform="translate(-70.573)" fill="#a1a1a1"/>
        </g>
      </g>
    </g>
  </g>
</svg>
