<svg xmlns="http://www.w3.org/2000/svg" xmlns:xlink="http://www.w3.org/1999/xlink" width="56" height="56" viewBox="0 0 56 56">
  <defs>
    <filter id="Ellipse_95" x="0" y="0" width="56" height="56" filterUnits="userSpaceOnUse">
      <feOffset input="SourceAlpha"/>
      <feGaussianBlur stdDeviation="3" result="blur"/>
      <feFlood flood-color="#a1a1a1" flood-opacity="0.259"/>
      <feComposite operator="in" in2="blur"/>
      <feComposite in="SourceGraphic"/>
    </filter>
  </defs>
  <g id="ميزانية_الحجز" data-name="ميزانية الحجز" transform="translate(-287 -140)">
    <g transform="matrix(1, 0, 0, 1, 287, 140)" filter="url(#Ellipse_95)">
      <circle id="Ellipse_95-2" data-name="Ellipse 95" cx="19" cy="19" r="19" transform="translate(9 9)" fill="#fff"/>
    </g>
    <g id="svgexport-10_5_" data-name="svgexport-10 (5)" transform="translate(308 158)">
      <g id="XMLID_1487_" transform="translate(0 0)">
        <g id="XMLID_1153_" transform="translate(0 0)">
          <path id="XMLID_1329_" d="M75.538,10.651l-2.868-4.5a1.275,1.275,0,0,0-.119-2.314L73.42.8a.375.375,0,0,0-.1-.368,1.484,1.484,0,0,0-2.1,0,.727.727,0,0,1-.518.214.728.728,0,0,1-.518-.215l0,0a1.485,1.485,0,0,0-2.093,0L68.087.44a.733.733,0,0,1-1.033,0l0,0a1.484,1.484,0,0,0-2.1,0,.375.375,0,0,0-.1.369L65.73,3.84a1.275,1.275,0,0,0-.121,2.315l-2.868,4.5a5.564,5.564,0,0,0,4.691,8.556h3.415a5.564,5.564,0,0,0,4.691-8.556ZM66.521.966l0,0a1.485,1.485,0,0,0,2.093,0l.011-.011a.734.734,0,0,1,1.034,0l0,0a1.484,1.484,0,0,0,2.1,0,.733.733,0,0,1,.87-.124L71.8,3.75H66.485L65.651.842a.733.733,0,0,1,.87.124Zm8.547,14.991a4.75,4.75,0,0,1-4.221,2.5H67.432a4.813,4.813,0,0,1-4.058-7.4L66.407,6.3h1.045a.375.375,0,0,0,0-.75H66.2a.525.525,0,0,1,0-1.05h5.878a.525.525,0,1,1,0,1.05H70.828a.375.375,0,0,0,0,.75h1.045l3.032,4.754A4.751,4.751,0,0,1,75.068,15.957Z" transform="translate(-61.857 0.001)" fill="#a1a1a1"/>
          <path id="XMLID_1341_" d="M211.024,241.294c-.094-.033-.19-.068-.286-.1v-1.7a1.541,1.541,0,0,1,.431.2.375.375,0,0,0,.451-.6,2.292,2.292,0,0,0-.883-.374v-.373a.375.375,0,0,0-.75,0v.371a1.95,1.95,0,0,0-.193.047,1.5,1.5,0,0,0-1.03,1.178,1.325,1.325,0,0,0,.434,1.306,3.612,3.612,0,0,0,.789.449v2.176a1.5,1.5,0,0,1-.823-.3.375.375,0,0,0-.411.628,2.214,2.214,0,0,0,1.233.424v.388a.375.375,0,1,0,.75,0v-.427a1.809,1.809,0,0,0,1.379-1.473A1.587,1.587,0,0,0,211.024,241.294Zm-1.363-.637a.585.585,0,0,1-.16-.576.764.764,0,0,1,.486-.591v1.374A2.242,2.242,0,0,1,209.661,240.657Zm1.715,2.329a1.076,1.076,0,0,1-.639.813v-1.81l.036.013A.849.849,0,0,1,211.376,242.986Z" transform="translate(-203.079 -229.042)" fill="#a1a1a1"/>
          <path id="XMLID_1343_" d="M246.36,148.719a.375.375,0,1,0-.265-.11A.378.378,0,0,0,246.36,148.719Z" transform="translate(-239.077 -142.418)" fill="#a1a1a1"/>
        </g>
      </g>
    </g>
  </g>
</svg>
