<svg xmlns="http://www.w3.org/2000/svg" xmlns:xlink="http://www.w3.org/1999/xlink" width="56" height="56" viewBox="0 0 56 56">
  <defs>
    <filter id="Ellipse_90" x="0" y="0" width="56" height="56" filterUnits="userSpaceOnUse">
      <feOffset input="SourceAlpha"/>
      <feGaussianBlur stdDeviation="3" result="blur"/>
      <feFlood flood-color="#a1a1a1" flood-opacity="0.259"/>
      <feComposite operator="in" in2="blur"/>
      <feComposite in="SourceGraphic"/>
    </filter>
  </defs>
  <g id="نوع_الحجز" data-name="نوع الحجز" transform="translate(-167 -140)">
    <g transform="matrix(1, 0, 0, 1, 167, 140)" filter="url(#Ellipse_90)">
      <circle id="Ellipse_90-2" data-name="Ellipse 90" cx="19" cy="19" r="19" transform="translate(9 9)" fill="#fff"/>
    </g>
    <g id="svgexport-6_23_" data-name="svgexport-6 (23)" transform="translate(185 158)">
      <g id="Group_17352" data-name="Group 17352" transform="translate(0 0)">
        <g id="Group_17350" data-name="Group 17350" transform="translate(6.393 0.155)">
          <path id="Path_11931" data-name="Path 11931" d="M169.191,8.275l.315.885a.142.142,0,0,0,.074.083l.786.354a.157.157,0,0,1,0,.277l-.786.354a.142.142,0,0,0-.074.083l-.315.885a.128.128,0,0,1-.246,0l-.315-.885a.142.142,0,0,0-.074-.083l-.786-.354a.157.157,0,0,1,0-.277l.786-.354a.142.142,0,0,0,.074-.083l.315-.885a.128.128,0,0,1,.246,0Z" transform="translate(-167.687 -8.181)" fill="#a1a1a1"/>
          <path id="Path_11932" data-name="Path 11932" d="M458.516,217.469l.233.656a.105.105,0,0,0,.055.062l.583.263a.116.116,0,0,1,0,.205l-.583.263a.105.105,0,0,0-.055.062l-.233.656a.1.1,0,0,1-.183,0l-.233-.656a.105.105,0,0,0-.055-.062l-.583-.263a.116.116,0,0,1,0-.205l.583-.263a.105.105,0,0,0,.055-.062l.233-.656A.1.1,0,0,1,458.516,217.469Z" transform="translate(-446.355 -209.422)" fill="#a1a1a1"/>
          <circle id="Ellipse_91" data-name="Ellipse 91" cx="0.296" cy="0.296" r="0.296" transform="translate(7.526 2.512)" fill="#a1a1a1"/>
          <circle id="Ellipse_92" data-name="Ellipse 92" cx="0.547" cy="0.547" r="0.547" transform="translate(11.186 1.415) rotate(-85.931)" fill="#a1a1a1"/>
        </g>
        <g id="Group_17351" data-name="Group 17351" transform="translate(0 0)">
          <path id="Path_11933" data-name="Path 11933" d="M13.153,66.515a11.86,11.86,0,0,0-2.319-3.131c-.316-.316-.641-.613-.968-.887l-.247-.888.624.2.01,0A1.658,1.658,0,0,0,11.9,61.4l.644-.644a1.658,1.658,0,0,0,.411-1.645l-.354-1.2a1.171,1.171,0,0,0-2.246.661l.25.892-.63-.178a1.658,1.658,0,0,0-1.643.412l-.644.644a1.636,1.636,0,0,0-.364.554c-1.127-.441-1.731-.234-2.05.055a1.219,1.219,0,0,0-.48.533l0,.009L.129,72.245a1.427,1.427,0,0,0,1.891,1.891L12.79,69.5l.01,0a1.22,1.22,0,0,0,.688-.893c0-.017,0-.035.007-.052a2.753,2.753,0,0,0-.341-2.035Zm-1.123-.446a.409.409,0,1,1-.29.12A.409.409,0,0,1,12.031,66.069Zm-.668-8.209a.405.405,0,0,1,.5.273l.354,1.2a.893.893,0,0,1-.219.886l-.292.292-.183-.59h0l-.435-1.552v-.005A.405.405,0,0,1,11.363,57.86Zm-1.6,2.166h0l1.089.307.222.715a.906.906,0,0,1-.6.032L9.365,60.72l-.2-.666a.9.9,0,0,1,.338-.066A.919.919,0,0,1,9.759,60.026Zm-1.53.862.3-.3.188.609v0l.426,1.534,0,.006a.4.4,0,1,1-.776.229l-.354-1.2A.893.893,0,0,1,8.229,60.888Zm-2.452.646a.558.558,0,0,1,.4-.121,2.735,2.735,0,0,1,1.039.272,1.69,1.69,0,0,0,.06.307l.354,1.2a1.17,1.17,0,0,0,2.143.241q.262.237.52.494a13.117,13.117,0,0,1,1.465,1.729.868.868,0,1,0,.834,1.487c.291.726.247,1.145.093,1.3-.175.175-.687.208-1.6-.224A11.085,11.085,0,0,1,8.168,66.05,11.084,11.084,0,0,1,6,63.133c-.431-.912-.4-1.424-.224-1.6Zm-4.065,11.9-.01,0a.662.662,0,0,1-.744-.132h0a.662.662,0,0,1-.132-.744l0-.009,4.22-9.732a5.5,5.5,0,0,0,.258.639,11.859,11.859,0,0,0,2.319,3.131,11.859,11.859,0,0,0,3.131,2.319,5.222,5.222,0,0,0,.769.3Z" transform="translate(0.001 -55.058)" fill="#a1a1a1"/>
          <path id="Path_11934" data-name="Path 11934" d="M335.767,82.394l-1.2-.354a1.658,1.658,0,0,0-1.645.411l-.644.644a1.658,1.658,0,0,0-.411,1.645l0,.01.2.624-.922-.256a1.171,1.171,0,0,0-.66,2.246l1.2.354a1.686,1.686,0,0,0,.478.069,1.648,1.648,0,0,0,1.167-.481l.644-.644a1.658,1.658,0,0,0,.412-1.643l-.178-.63.892.25a1.171,1.171,0,0,0,.661-2.246Zm-2.419,1.747.307,1.089v0a.907.907,0,0,1-.028.6l-.665-.2-.362-1.111a.906.906,0,0,1,.032-.6Zm-1.44,2.842-1.2-.354a.4.4,0,0,1-.171-.1.4.4,0,0,1,.4-.675l.006,0,1.534.426h0l.609.188-.3.3A.893.893,0,0,1,331.908,86.983Zm3.915-3.353a.4.4,0,0,1-.5.273h-.005l-1.552-.435h0l-.59-.183.292-.292a.893.893,0,0,1,.886-.219l1.2.354A.405.405,0,0,1,335.823,83.631Z" transform="translate(-317.085 -79.002)" fill="#a1a1a1"/>
          <path id="Path_11935" data-name="Path 11935" d="M360.072,5.848a.869.869,0,1,0-.615-.254A.866.866,0,0,0,360.072,5.848Zm-.29-1.159a.41.41,0,1,1,0,.579A.409.409,0,0,1,359.782,4.69Z" transform="translate(-345.508 -4.11)" fill="#a1a1a1"/>
          <path id="Path_11936" data-name="Path 11936" d="M396.626,278.084a.869.869,0,1,0,1.229,0A.87.87,0,0,0,396.626,278.084Zm.9.9a.41.41,0,1,1,0-.579A.41.41,0,0,1,397.531,278.988Z" transform="translate(-381.26 -267.393)" fill="#a1a1a1"/>
          <path id="Path_11937" data-name="Path 11937" d="M91.677,316.942a.383.383,0,0,1-.352-.535l.485-1.126a.383.383,0,1,1,.7.3l-.485,1.126A.383.383,0,0,1,91.677,316.942Z" transform="translate(-87.813 -303.194)" fill="#a1a1a1"/>
          <path id="Path_11938" data-name="Path 11938" d="M118.635,274.09a.383.383,0,0,1-.352-.535l.148-.343a.383.383,0,0,1,.7.3l-.148.343A.383.383,0,0,1,118.635,274.09Z" transform="translate(-113.743 -262.729)" fill="#a1a1a1"/>
        </g>
      </g>
    </g>
  </g>
</svg>
