<svg xmlns="http://www.w3.org/2000/svg" xmlns:xlink="http://www.w3.org/1999/xlink" width="56" height="56" viewBox="0 0 56 56">
  <defs>
    <filter id="Ellipse_88" x="0" y="0" width="56" height="56" filterUnits="userSpaceOnUse">
      <feOffset input="SourceAlpha"/>
      <feGaussianBlur stdDeviation="3" result="blur"/>
      <feFlood flood-color="#a1a1a1" flood-opacity="0.259"/>
      <feComposite operator="in" in2="blur"/>
      <feComposite in="SourceGraphic"/>
    </filter>
  </defs>
  <g id="وقت_الحجز" data-name="وقت الحجز" transform="translate(-87 -140)">
    <g transform="matrix(1, 0, 0, 1, 87, 140)" filter="url(#Ellipse_88)">
      <circle id="Ellipse_88-2" data-name="Ellipse 88" cx="19" cy="19" r="19" transform="translate(9 9)" fill="#fff"/>
    </g>
    <g id="svgexport-6_21_" data-name="svgexport-6 (21)" transform="translate(105 158)">
      <path id="Path_11919" data-name="Path 11919" d="M9.6,0a9.6,9.6,0,1,0,9.6,9.6A9.615,9.615,0,0,0,9.6,0Zm0,18.007a8.4,8.4,0,1,1,8.4-8.4,8.413,8.413,0,0,1-8.4,8.4Z" fill="#a1a1a1"/>
      <path id="Path_11920" data-name="Path 11920" d="M208.994,83.118h-1.2v6.251l3.777,3.777.849-.849-3.426-3.426Z" transform="translate(-198.79 -79.517)" fill="#a1a1a1"/>
    </g>
  </g>
</svg>
